<svg width="140" height="158" viewBox="0 0 140 158" fill="none" xmlns="http://www.w3.org/2000/svg">
<g clip-path="url(#clip0_5650_239070)">
<path d="M77.4051 143.83V163.389L17.2998 160.526C17.2998 160.526 24.1372 131.11 17.2998 116.64C10.4624 102.17 -1.87668 68.0784 3.46602 47.4709C10.1444 21.7114 33.5187 4.53844 60.2323 2.63033C86.9458 0.722218 104.596 18.8493 114.613 34.1141C122.627 46.326 121.769 62.0997 120.338 68.4601L132.866 86.9253C132.866 86.9253 134.874 89.5361 135.126 91.3574C135.529 94.2752 133.46 96.2279 130.832 97.5588C128.339 98.8214 123.677 97.5588 123.677 97.5588C123.677 97.5588 121.387 104.714 119.861 119.979C117.953 139.06 109.843 142.399 93.147 138.106C79.7903 134.671 77.0871 140.491 77.4051 143.83Z" fill="white" fill-opacity="0.12"/>
<path d="M78.3229 163.389V143.83C78.0049 140.491 80.708 134.671 94.0648 138.106C110.761 142.399 118.87 139.06 120.778 119.979C122.305 104.714 124.595 97.5588 124.595 97.5588C124.595 97.5588 129.257 98.8214 131.75 97.5588C134.378 96.2279 136.447 94.2752 136.043 91.3574C135.791 89.5361 133.784 86.9253 133.784 86.9253L121.255 68.4601C122.687 62.0997 123.545 46.326 115.531 34.1141C105.514 18.8493 87.8636 0.722218 61.15 2.63033C34.4365 4.53844 11.0622 21.7114 4.38378 47.4709C-0.958929 68.0784 11.3802 102.17 18.2176 116.64C25.055 131.11 18.2176 160.526 18.2176 160.526" stroke="#8E8E8E" stroke-width="3.81622" stroke-linecap="round"/>
</g>
<defs>
<clipPath id="clip0_5650_239070">
<rect width="139.499" height="157.855" fill="white" transform="translate(0.443481 0.145264)"/>
</clipPath>
</defs>
</svg>
