<svg width="24" height="24" viewBox="0 0 24 24" fill="none" xmlns="http://www.w3.org/2000/svg">
<path fill-rule="evenodd" clip-rule="evenodd" d="M8 6.99609C8.55228 6.99609 9 7.44381 9 7.99609C9 8.50893 8.61396 8.9316 8.11662 8.98937L8 8.99609H7C5.40232 8.99609 4.09634 10.245 4.00509 11.8198L4 11.9961V15.9999C4 17.5976 5.24892 18.9036 6.82373 18.9948L7 18.9999H17C18.5977 18.9999 19.9037 17.751 19.9949 16.1762L20 15.9999V11.9961C20 10.3984 18.7511 9.09243 17.1763 9.00119L17 8.99609H15.9997C15.4474 8.99609 14.9997 8.54838 14.9997 7.99609C14.9997 7.48326 15.3857 7.06059 15.883 7.00282L15.9997 6.99609H17C19.6888 6.99609 21.8818 9.1184 21.9954 11.7792L22 11.9961V15.9999C22 18.6887 19.8777 20.8817 17.2169 20.9953L17 20.9999H7C4.31125 20.9999 2.11818 18.8776 2.00462 16.2168L2 15.9999V11.9961C2 9.30734 4.12231 7.11428 6.78311 7.00071L7 6.99609H8Z" fill="#8E8E8E"/>
<g opacity="0.5">
<path fill-rule="evenodd" clip-rule="evenodd" d="M12.9933 3.88338C12.9355 3.38604 12.5128 3 12 3C11.4477 3 11 3.44772 11 4V12.5853L9.70711 11.2929L9.6129 11.2097C9.22061 10.9047 8.65338 10.9324 8.29289 11.2929C7.90237 11.6834 7.90237 12.3166 8.29289 12.7071L11.2929 15.7071C11.3223 15.7365 11.3535 15.7641 11.3864 15.7897L11.3871 15.7903C11.4587 15.846 11.5361 15.8905 11.617 15.924C11.7336 15.9724 11.8612 15.9993 11.9951 16C11.9967 16 11.9984 16 12 16C12.0017 16 12.0034 16 12.0051 16C12.2593 15.9987 12.5131 15.9011 12.7071 15.7071L12.7077 15.7065M13 12.5853V4L12.9933 3.88338" fill="#8E8E8E"/>
</g>
</svg>
