<svg width="24" height="24" viewBox="0 0 24 24" fill="none" xmlns="http://www.w3.org/2000/svg">
<path fill-rule="evenodd" clip-rule="evenodd" d="M14 2H8C5.23858 2 3 4.23858 3 7V17C3 19.7614 5.23858 22 8 22H16C18.7614 22 21 19.7614 21 17V9C21 8.99923 21 8.99846 21 8.99769C21 8.99659 21 8.9955 21 8.9944C20.9998 8.68884 20.8625 8.4154 20.6464 8.23214L14.7072 2.29301L14.7071 2.29289C14.5196 2.10536 14.2652 2 14 2ZM13 3.9991L8 4C6.34315 4 5 5.34315 5 7V17C5 18.6569 6.34315 20 8 20H16C17.6569 20 19 18.6569 19 17V9.9959L16.006 9.998C14.4001 10 13.094 8.75022 13.0048 7.17618L13 7V3.9991ZM17.5825 7.99749L15 5.415V7.00145C14.9993 7.51334 15.3847 7.93557 15.8818 7.99328L15.982 7.999L17.5825 7.99749Z" fill="#8E8E8E"/>
<g opacity="0.5">
<path fill-rule="evenodd" clip-rule="evenodd" d="M9 10C8.44772 10 8 10.4477 8 11C8 11.5523 8.44772 12 9 12H11C11.5523 12 12 11.5523 12 11C12 10.4477 11.5523 10 11 10H9ZM9 14C8.44772 14 8 14.4477 8 15C8 15.5523 8.44772 16 9 16H15C15.5523 16 16 15.5523 16 15C16 14.4477 15.5523 14 15 14H9Z" fill="#8E8E8E"/>
</g>
</svg>
