<svg xmlns="http://www.w3.org/2000/svg" width="328" height="536" viewBox="0 0 328 536" fill="none">
<path d="M208.499 52.07C205.699 50.07 205.666 33.57 205.999 25.57C206.833 21.4033 208.799 12.87 209.999 12.07C211.499 11.07 224.499 14.07 230.999 17.57C237.499 21.07 245.499 33.57 244.999 38.07C244.499 42.57 231.999 48.57 228.499 50.07C224.999 51.57 211.999 54.57 208.499 52.07Z" fill="white" stroke="#AAAAAA" stroke-width="2"/>
<path d="M177.5 42.0682C175.5 40.8682 167.667 25.5682 164 18.0682C158 14.0682 161.5 8.06814 164 5.56812C163.334 6.40146 163.1 7.16816 167.5 3.56816C171.9 -0.0318441 188.667 1.06816 196.5 2.06816C198.834 3.06816 204.6 5.86816 209 9.06816C214.5 13.0682 209 23.5682 205 25.5682C201 27.5682 189 40.5682 186 44.0682C183 47.5682 180 43.5682 177.5 42.0682Z" fill="white" stroke="#AAAAAA" stroke-width="2"/>
<path d="M147.5 45.0689C139.9 43.8689 130.667 32.5689 127 27.0689C123.667 25.2355 118.1 19.3689 122.5 10.5689C128 -0.431123 152 1.06888 156 1.06888C160 1.06888 164.5 2.56888 165.5 10.0689C166.5 17.5689 157 46.5689 147.5 45.0689Z" fill="white" stroke="#AAAAAA" stroke-width="2"/>
<path d="M112.5 53.0694C106.5 52.6694 98.6667 44.9028 95.5 41.0694C92.8333 42.2361 87.5 42.8693 87.5 36.0693C87.5 27.5693 96.5 22.5694 104.5 17.0694C112.5 11.5694 123 14.5694 125.5 16.5694C128 18.5694 127 45.5694 125.5 49.0694C124 52.5694 120 53.5694 112.5 53.0694Z" fill="white" stroke="#AAAAAA" stroke-width="2"/>
<path d="M69.5 45.5668V66.5668C69.5 67.9002 71.9 71.2669 81.5 74.0669C91.1 76.8669 96.1667 74.9002 97.5 73.5669C99.3333 71.5669 102.6 66.4669 101 62.0669C99 56.5669 99 43.5669 94.5 39.5669C90 35.5669 84.5 38.5668 78 38.0668C72.8 37.6668 70.1667 42.9002 69.5 45.5668Z" fill="white" stroke="#AAAAAA" stroke-width="2"/>
<path d="M57.0003 69.5704C46.6003 74.7704 45.0003 89.7371 45.5003 96.5704C46.5005 101.571 51 108.57 64 110.57C85 109.07 86 92.5703 87 90.0703C88 87.5703 88 82.0704 82 75.0704C76 68.0704 70.0003 63.0704 57.0003 69.5704Z" fill="white" stroke="#AAAAAA" stroke-width="2"/>
<path d="M5.50098 189.57C4.00098 193.07 7.50113 194.07 4.00113 204.07C1.34876 211.649 8.05853 217.133 12.3152 219.249C24.6294 223.427 37.501 219.57 44.501 218.07C51.501 216.57 51.501 210.07 51.501 206.07C51.501 202.87 50.501 193.07 50.001 188.57L47.001 178.57L17.501 174.57C16.8343 174.57 15.301 175.37 14.501 178.57C13.501 182.57 7.00098 186.07 5.50098 189.57Z" fill="white"/>
<path d="M13.0011 219.57C12.7814 219.474 12.5521 219.366 12.3152 219.249M12.3152 219.249C8.05853 217.133 1.34876 211.649 4.00113 204.07C7.50113 194.07 4.00098 193.07 5.50098 189.57C7.00098 186.07 13.501 182.57 14.501 178.57C15.301 175.37 16.8343 174.57 17.501 174.57L47.001 178.57L50.001 188.57C50.501 193.07 51.501 202.87 51.501 206.07C51.501 210.07 51.501 216.57 44.501 218.07C37.501 219.57 24.6294 223.427 12.3152 219.249Z" stroke="#AAAAAA" stroke-width="2"/>
<path d="M48.9999 253.57C48.5999 261.17 39.1665 264.07 34.4999 264.57C14.9998 266.57 5.99988 246.57 2.49988 236.07C-1.00012 225.57 7.49988 222.07 12.4999 218.57C17.4999 215.07 35.4999 217.57 38.4999 217.07C41.4999 216.57 50.4999 221.57 52.4999 226.57C54.4999 231.57 49.4999 244.07 48.9999 253.57Z" fill="white" stroke="#AAAAAA" stroke-width="2"/>
<path d="M277 238.071C277.8 235.671 284.333 226.738 287.5 222.571C297.333 222.238 317.6 222.071 320 224.071C323 226.571 322 242.571 322 245.071C322 247.571 310.5 263.071 308 263.571C305.5 264.071 289 261.071 283 260.071C278.2 259.271 276 254.071 275.5 251.571C275.667 248.071 276.2 240.471 277 238.071Z" fill="white" stroke="#AAAAAA" stroke-width="2"/>
<path d="M283 216.57C277.4 201.77 280.667 187.07 283 181.57L315.5 175.07C316 175.237 318 176.57 322 180.57C327 185.57 326 199.07 326.5 203.07C327 207.07 325 216.57 324 218.07C323 219.57 316.5 225.07 315.5 225.07C314.5 225.07 292.5 226.07 289 225.07C286.2 224.27 283.834 219.07 283 216.57Z" fill="white" stroke="#AAAAAA" stroke-width="2"/>
<path d="M273.499 166.07C271.899 162.47 273.499 151.57 274.499 146.57C282.332 142.236 299.599 133.87 305.999 135.07C312.399 136.27 316.332 145.57 317.499 150.07V173.57C317.499 175.07 310.499 179.07 307.499 180.57C304.499 182.07 294.499 182.57 292.499 182.57C290.499 182.57 282.999 181.07 281.499 180.57C279.999 180.07 275.499 170.57 273.499 166.07Z" fill="white" stroke="#AAAAAA" stroke-width="2"/>
<path d="M260.499 133.07C258.499 131.87 259.666 118.57 260.499 112.07C267.999 107.737 283.399 99.0703 284.999 99.0703C286.999 99.0703 291.999 99.5703 291.499 101.57C290.999 103.57 300.999 118.07 302.499 120.57C303.999 123.07 305.499 134.07 302.499 137.57C299.499 141.07 276.999 146.57 273.999 146.07C270.999 145.57 262.999 134.57 260.499 133.07Z" fill="white" stroke="#AAAAAA" stroke-width="2"/>
<path d="M243.499 96.5673C242.299 94.5673 242.332 83.734 242.499 78.5673C242.832 75.734 246.799 70.1673 259.999 70.5673C276.499 71.0673 280.499 81.0673 281.999 84.5673C283.499 88.0673 282.999 101.567 280.499 104.067C277.999 106.567 262.499 112.067 257.499 112.067C252.499 112.067 244.999 99.0673 243.499 96.5673Z" fill="white" stroke="#AAAAAA" stroke-width="2"/>
<path d="M227.5 66.0708C225.1 61.6708 227.167 53.5708 228.5 50.0708L239.5 43.5708C244.833 42.4042 256.4 41.0708 260 45.0708C264.5 50.0708 266 57.0708 262 67.5708C258 78.0708 240 77.5708 237.5 76.5708C235 75.5708 230.5 71.5708 227.5 66.0708Z" fill="white" stroke="#AAAAAA" stroke-width="2"/>
<path d="M283.5 301.567C279.9 313.167 287 323.733 291 327.567C292.499 333.067 309.5 328.567 316 323.567C322.5 318.567 321 316.067 320 313.567C319.2 311.567 318.333 308.734 318 307.567C318 292.367 312.333 286.567 309.5 285.567C283.5 280.567 288 287.067 283.5 301.567Z" fill="white" stroke="#AAAAAA" stroke-width="2"/>
<path d="M295 327.068C273 335.068 288.5 370.568 288.5 371.068C292.5 374.734 303 379.367 313 368.567C325.5 355.067 323 338.568 319.5 331.068C316 323.568 317 319.068 295 327.068Z" fill="white" stroke="#AAAAAA" stroke-width="2"/>
<path d="M307.499 368.07C276.699 364.07 274.999 393.737 277.999 409.07C283 420.57 304.499 419.57 305.999 414.57C307.499 409.57 314.999 402.57 319.499 390.07C323.099 380.07 312.999 371.237 307.499 368.07Z" fill="white" stroke="#AAAAAA" stroke-width="2"/>
<path d="M257.999 449.57C256.665 435.237 259.699 407.17 282.499 409.57C310.999 412.57 300.999 435.07 296.499 441.57C291.999 448.07 291.999 455.07 277.499 457.07C271.656 457.876 267.174 456.771 263.952 455.07C278.452 463.57 271.999 474.57 270.999 477.07C269.999 479.57 262.499 489.57 253.499 491.57C246.299 493.17 242.499 492.904 241.499 492.57C239.386 490.904 235.127 486.87 234.999 484.07C234.666 478.404 234.399 466.27 235.999 463.07C237.962 459.145 249.028 447.034 263.144 454.617C260.444 453.005 258.753 451.004 257.999 449.57Z" fill="white" stroke="#AAAAAA" stroke-width="2"/>
<path d="M291.828 246C291.748 246 291.68 245.972 291.624 245.916C291.568 245.86 291.54 245.792 291.54 245.712V245.1C291.54 244.884 291.64 244.696 291.84 244.536L293.736 242.652C294.56 242.004 295.132 241.5 295.452 241.14C295.78 240.772 295.944 240.412 295.944 240.06C295.944 239.684 295.84 239.388 295.632 239.172C295.432 238.956 295.128 238.848 294.72 238.848C294.32 238.848 294.004 238.968 293.772 239.208C293.54 239.44 293.396 239.744 293.34 240.12C293.316 240.216 293.272 240.288 293.208 240.336C293.144 240.376 293.072 240.396 292.992 240.396H291.924C291.852 240.396 291.792 240.372 291.744 240.324C291.696 240.276 291.672 240.22 291.672 240.156C291.688 239.684 291.816 239.244 292.056 238.836C292.296 238.42 292.644 238.088 293.1 237.84C293.556 237.584 294.092 237.456 294.708 237.456C295.348 237.456 295.888 237.568 296.328 237.792C296.776 238.008 297.112 238.308 297.336 238.692C297.56 239.076 297.672 239.512 297.672 240C297.672 240.536 297.52 241.02 297.216 241.452C296.92 241.884 296.464 242.348 295.848 242.844L294.144 244.572H297.564C297.652 244.572 297.72 244.6 297.768 244.656C297.824 244.704 297.852 244.772 297.852 244.86V245.712C297.852 245.792 297.824 245.86 297.768 245.916C297.72 245.972 297.652 246 297.564 246H291.828ZM303.366 246.12C302.67 246.12 302.07 246.012 301.566 245.796C301.07 245.572 300.69 245.264 300.426 244.872C300.162 244.48 300.03 244.032 300.03 243.528C300.03 243.08 300.142 242.684 300.366 242.34C300.59 241.988 300.89 241.72 301.266 241.536C300.97 241.352 300.738 241.116 300.57 240.828C300.41 240.532 300.33 240.196 300.33 239.82C300.33 239.116 300.594 238.552 301.122 238.128C301.658 237.696 302.406 237.48 303.366 237.48C304.318 237.48 305.058 237.692 305.586 238.116C306.114 238.54 306.378 239.104 306.378 239.808C306.378 240.184 306.298 240.52 306.138 240.816C305.986 241.104 305.762 241.344 305.466 241.536C305.85 241.72 306.15 241.988 306.366 242.34C306.59 242.684 306.702 243.084 306.702 243.54C306.702 244.044 306.57 244.492 306.306 244.884C306.042 245.276 305.658 245.58 305.154 245.796C304.65 246.012 304.054 246.12 303.366 246.12ZM303.366 241.02C303.782 241.012 304.126 240.904 304.398 240.696C304.678 240.488 304.818 240.216 304.818 239.88C304.818 239.528 304.682 239.248 304.41 239.04C304.138 238.832 303.79 238.728 303.366 238.728C302.942 238.728 302.594 238.832 302.322 239.04C302.05 239.248 301.914 239.528 301.914 239.88C301.914 240.224 302.05 240.5 302.322 240.708C302.594 240.916 302.942 241.02 303.366 241.02ZM303.366 244.872C303.838 244.872 304.234 244.752 304.554 244.512C304.874 244.264 305.034 243.94 305.034 243.54C305.034 243.14 304.874 242.82 304.554 242.58C304.234 242.332 303.838 242.208 303.366 242.208C302.886 242.208 302.486 242.328 302.166 242.568C301.854 242.808 301.698 243.132 301.698 243.54C301.698 243.948 301.854 244.272 302.166 244.512C302.486 244.752 302.886 244.872 303.366 244.872Z" fill="#606160"/>
<path d="M295.732 309.12C295.028 309.12 294.428 309.008 293.932 308.784C293.444 308.56 293.076 308.28 292.828 307.944C292.588 307.6 292.46 307.248 292.444 306.888C292.444 306.816 292.468 306.76 292.516 306.72C292.572 306.672 292.636 306.648 292.708 306.648H293.788C293.964 306.648 294.08 306.728 294.136 306.888C294.312 307.464 294.848 307.752 295.744 307.752C296.232 307.752 296.616 307.64 296.896 307.416C297.176 307.184 297.316 306.856 297.316 306.432C297.316 305.632 296.816 305.232 295.816 305.232H294.58C294.492 305.232 294.42 305.204 294.364 305.148C294.308 305.092 294.28 305.024 294.28 304.944V304.44C294.28 304.312 294.336 304.192 294.448 304.08L296.596 301.98H293.164C293.084 301.98 293.016 301.952 292.96 301.896C292.904 301.84 292.876 301.772 292.876 301.692V300.9C292.876 300.812 292.9 300.74 292.948 300.684C293.004 300.628 293.076 300.6 293.164 300.6H298.312C298.4 300.6 298.472 300.628 298.528 300.684C298.584 300.74 298.612 300.812 298.612 300.9V301.62C298.612 301.74 298.56 301.852 298.456 301.956L296.38 304.092L296.524 304.104C297.292 304.168 297.9 304.4 298.348 304.8C298.804 305.2 299.032 305.772 299.032 306.516C299.032 307.044 298.888 307.504 298.6 307.896C298.32 308.288 297.928 308.592 297.424 308.808C296.928 309.016 296.364 309.12 295.732 309.12ZM304.495 309.12C303.799 309.12 303.199 309.012 302.695 308.796C302.199 308.572 301.819 308.264 301.555 307.872C301.291 307.48 301.159 307.032 301.159 306.528C301.159 306.08 301.271 305.684 301.495 305.34C301.719 304.988 302.019 304.72 302.395 304.536C302.099 304.352 301.867 304.116 301.699 303.828C301.539 303.532 301.459 303.196 301.459 302.82C301.459 302.116 301.723 301.552 302.251 301.128C302.787 300.696 303.535 300.48 304.495 300.48C305.447 300.48 306.187 300.692 306.715 301.116C307.243 301.54 307.507 302.104 307.507 302.808C307.507 303.184 307.427 303.52 307.267 303.816C307.115 304.104 306.891 304.344 306.595 304.536C306.979 304.72 307.279 304.988 307.495 305.34C307.719 305.684 307.831 306.084 307.831 306.54C307.831 307.044 307.699 307.492 307.435 307.884C307.171 308.276 306.787 308.58 306.283 308.796C305.779 309.012 305.183 309.12 304.495 309.12ZM304.495 304.02C304.911 304.012 305.255 303.904 305.527 303.696C305.807 303.488 305.947 303.216 305.947 302.88C305.947 302.528 305.811 302.248 305.539 302.04C305.267 301.832 304.919 301.728 304.495 301.728C304.071 301.728 303.723 301.832 303.451 302.04C303.179 302.248 303.043 302.528 303.043 302.88C303.043 303.224 303.179 303.5 303.451 303.708C303.723 303.916 304.071 304.02 304.495 304.02ZM304.495 307.872C304.967 307.872 305.363 307.752 305.683 307.512C306.003 307.264 306.163 306.94 306.163 306.54C306.163 306.14 306.003 305.82 305.683 305.58C305.363 305.332 304.967 305.208 304.495 305.208C304.015 305.208 303.615 305.328 303.295 305.568C302.983 305.808 302.827 306.132 302.827 306.54C302.827 306.948 302.983 307.272 303.295 307.512C303.615 307.752 304.015 307.872 304.495 307.872Z" fill="#606160"/>
<path d="M298.732 350.12C298.028 350.12 297.428 350.008 296.932 349.784C296.444 349.56 296.076 349.28 295.828 348.944C295.588 348.6 295.46 348.248 295.444 347.888C295.444 347.816 295.468 347.76 295.516 347.72C295.572 347.672 295.636 347.648 295.708 347.648H296.788C296.964 347.648 297.08 347.728 297.136 347.888C297.312 348.464 297.848 348.752 298.744 348.752C299.232 348.752 299.616 348.64 299.896 348.416C300.176 348.184 300.316 347.856 300.316 347.432C300.316 346.632 299.816 346.232 298.816 346.232H297.58C297.492 346.232 297.42 346.204 297.364 346.148C297.308 346.092 297.28 346.024 297.28 345.944V345.44C297.28 345.312 297.336 345.192 297.448 345.08L299.596 342.98H296.164C296.084 342.98 296.016 342.952 295.96 342.896C295.904 342.84 295.876 342.772 295.876 342.692V341.9C295.876 341.812 295.9 341.74 295.948 341.684C296.004 341.628 296.076 341.6 296.164 341.6H301.312C301.4 341.6 301.472 341.628 301.528 341.684C301.584 341.74 301.612 341.812 301.612 341.9V342.62C301.612 342.74 301.56 342.852 301.456 342.956L299.38 345.092L299.524 345.104C300.292 345.168 300.9 345.4 301.348 345.8C301.804 346.2 302.032 346.772 302.032 347.516C302.032 348.044 301.888 348.504 301.6 348.896C301.32 349.288 300.928 349.592 300.424 349.808C299.928 350.016 299.364 350.12 298.732 350.12ZM305.299 350C305.227 350 305.167 349.976 305.119 349.928C305.071 349.872 305.047 349.808 305.047 349.736C305.047 349.712 305.055 349.676 305.071 349.628L307.963 343.028H304.195C304.115 343.028 304.047 343 303.991 342.944C303.935 342.888 303.907 342.82 303.907 342.74V341.9C303.907 341.812 303.931 341.74 303.979 341.684C304.035 341.628 304.107 341.6 304.195 341.6H309.463C309.551 341.6 309.619 341.628 309.667 341.684C309.723 341.74 309.751 341.812 309.751 341.9V342.644C309.751 342.804 309.715 342.976 309.643 343.16L306.775 349.712C306.687 349.904 306.559 350 306.391 350H305.299Z" fill="#606160"/>
<path d="M293.732 395.12C293.028 395.12 292.428 395.008 291.932 394.784C291.444 394.56 291.076 394.28 290.828 393.944C290.588 393.6 290.46 393.248 290.444 392.888C290.444 392.816 290.468 392.76 290.516 392.72C290.572 392.672 290.636 392.648 290.708 392.648H291.788C291.964 392.648 292.08 392.728 292.136 392.888C292.312 393.464 292.848 393.752 293.744 393.752C294.232 393.752 294.616 393.64 294.896 393.416C295.176 393.184 295.316 392.856 295.316 392.432C295.316 391.632 294.816 391.232 293.816 391.232H292.58C292.492 391.232 292.42 391.204 292.364 391.148C292.308 391.092 292.28 391.024 292.28 390.944V390.44C292.28 390.312 292.336 390.192 292.448 390.08L294.596 387.98H291.164C291.084 387.98 291.016 387.952 290.96 387.896C290.904 387.84 290.876 387.772 290.876 387.692V386.9C290.876 386.812 290.9 386.74 290.948 386.684C291.004 386.628 291.076 386.6 291.164 386.6H296.312C296.4 386.6 296.472 386.628 296.528 386.684C296.584 386.74 296.612 386.812 296.612 386.9V387.62C296.612 387.74 296.56 387.852 296.456 387.956L294.38 390.092L294.524 390.104C295.292 390.168 295.9 390.4 296.348 390.8C296.804 391.2 297.032 391.772 297.032 392.516C297.032 393.044 296.888 393.504 296.6 393.896C296.32 394.288 295.928 394.592 295.424 394.808C294.928 395.016 294.364 395.12 293.732 395.12ZM302.387 395.12C301.715 395.12 301.127 394.992 300.623 394.736C300.119 394.48 299.731 394.132 299.459 393.692C299.187 393.244 299.051 392.74 299.051 392.18C299.051 391.468 299.359 390.692 299.975 389.852L302.171 386.84C302.219 386.768 302.271 386.712 302.327 386.672C302.391 386.624 302.475 386.6 302.579 386.6H303.695C303.767 386.6 303.827 386.628 303.875 386.684C303.923 386.732 303.947 386.792 303.947 386.864C303.947 386.904 303.927 386.956 303.887 387.02L302.207 389.348C302.367 389.308 302.539 389.288 302.723 389.288C303.259 389.304 303.751 389.44 304.199 389.696C304.655 389.944 305.015 390.284 305.279 390.716C305.551 391.148 305.687 391.628 305.687 392.156C305.687 392.692 305.551 393.188 305.279 393.644C305.015 394.092 304.631 394.452 304.127 394.724C303.631 394.988 303.051 395.12 302.387 395.12ZM302.375 393.74C302.831 393.74 303.215 393.604 303.527 393.332C303.839 393.052 303.995 392.664 303.995 392.168C303.995 391.68 303.839 391.3 303.527 391.028C303.215 390.748 302.831 390.608 302.375 390.608C301.919 390.608 301.535 390.748 301.223 391.028C300.911 391.3 300.755 391.68 300.755 392.168C300.755 392.664 300.911 393.052 301.223 393.332C301.535 393.604 301.919 393.74 302.375 393.74Z" fill="#606160"/>
<path d="M274.732 438.12C274.028 438.12 273.428 438.008 272.932 437.784C272.444 437.56 272.076 437.28 271.828 436.944C271.588 436.6 271.46 436.248 271.444 435.888C271.444 435.816 271.468 435.76 271.516 435.72C271.572 435.672 271.636 435.648 271.708 435.648H272.788C272.964 435.648 273.08 435.728 273.136 435.888C273.312 436.464 273.848 436.752 274.744 436.752C275.232 436.752 275.616 436.64 275.896 436.416C276.176 436.184 276.316 435.856 276.316 435.432C276.316 434.632 275.816 434.232 274.816 434.232H273.58C273.492 434.232 273.42 434.204 273.364 434.148C273.308 434.092 273.28 434.024 273.28 433.944V433.44C273.28 433.312 273.336 433.192 273.448 433.08L275.596 430.98H272.164C272.084 430.98 272.016 430.952 271.96 430.896C271.904 430.84 271.876 430.772 271.876 430.692V429.9C271.876 429.812 271.9 429.74 271.948 429.684C272.004 429.628 272.076 429.6 272.164 429.6H277.312C277.4 429.6 277.472 429.628 277.528 429.684C277.584 429.74 277.612 429.812 277.612 429.9V430.62C277.612 430.74 277.56 430.852 277.456 430.956L275.38 433.092L275.524 433.104C276.292 433.168 276.9 433.4 277.348 433.8C277.804 434.2 278.032 434.772 278.032 435.516C278.032 436.044 277.888 436.504 277.6 436.896C277.32 437.288 276.928 437.592 276.424 437.808C275.928 438.016 275.364 438.12 274.732 438.12ZM283.231 438.132C282.567 438.132 281.995 438.02 281.515 437.796C281.043 437.572 280.679 437.276 280.423 436.908C280.175 436.54 280.043 436.144 280.027 435.72V435.696C280.027 435.632 280.051 435.58 280.099 435.54C280.147 435.5 280.207 435.48 280.279 435.48H281.395C281.579 435.48 281.699 435.56 281.755 435.72C281.867 436.072 282.051 436.332 282.307 436.5C282.571 436.668 282.879 436.752 283.231 436.752C283.679 436.752 284.051 436.616 284.347 436.344C284.651 436.072 284.803 435.692 284.803 435.204C284.803 434.772 284.651 434.42 284.347 434.148C284.051 433.876 283.679 433.74 283.231 433.74C282.991 433.74 282.795 433.772 282.643 433.836C282.491 433.9 282.343 433.988 282.199 434.1C282.103 434.172 282.027 434.224 281.971 434.256C281.923 434.28 281.863 434.292 281.791 434.292H280.687C280.615 434.292 280.551 434.268 280.495 434.22C280.447 434.164 280.423 434.1 280.423 434.028L280.843 429.924C280.851 429.828 280.883 429.752 280.939 429.696C281.003 429.632 281.083 429.6 281.179 429.6H285.691C285.771 429.6 285.839 429.628 285.895 429.684C285.951 429.74 285.979 429.808 285.979 429.888V430.692C285.979 430.772 285.951 430.84 285.895 430.896C285.839 430.952 285.771 430.98 285.691 430.98H282.223L282.031 432.936C282.423 432.664 282.947 432.528 283.603 432.528C284.123 432.528 284.603 432.64 285.043 432.864C285.491 433.08 285.847 433.396 286.111 433.812C286.375 434.22 286.507 434.696 286.507 435.24C286.507 435.824 286.371 436.336 286.099 436.776C285.827 437.208 285.443 437.544 284.947 437.784C284.459 438.016 283.887 438.132 283.231 438.132Z" fill="#606160"/>
<path d="M247.732 475.12C247.028 475.12 246.428 475.008 245.932 474.784C245.444 474.56 245.076 474.28 244.828 473.944C244.588 473.6 244.46 473.248 244.444 472.888C244.444 472.816 244.468 472.76 244.516 472.72C244.572 472.672 244.636 472.648 244.708 472.648H245.788C245.964 472.648 246.08 472.728 246.136 472.888C246.312 473.464 246.848 473.752 247.744 473.752C248.232 473.752 248.616 473.64 248.896 473.416C249.176 473.184 249.316 472.856 249.316 472.432C249.316 471.632 248.816 471.232 247.816 471.232H246.58C246.492 471.232 246.42 471.204 246.364 471.148C246.308 471.092 246.28 471.024 246.28 470.944V470.44C246.28 470.312 246.336 470.192 246.448 470.08L248.596 467.98H245.164C245.084 467.98 245.016 467.952 244.96 467.896C244.904 467.84 244.876 467.772 244.876 467.692V466.9C244.876 466.812 244.9 466.74 244.948 466.684C245.004 466.628 245.076 466.6 245.164 466.6H250.312C250.4 466.6 250.472 466.628 250.528 466.684C250.584 466.74 250.612 466.812 250.612 466.9V467.62C250.612 467.74 250.56 467.852 250.456 467.956L248.38 470.092L248.524 470.104C249.292 470.168 249.9 470.4 250.348 470.8C250.804 471.2 251.032 471.772 251.032 472.516C251.032 473.044 250.888 473.504 250.6 473.896C250.32 474.288 249.928 474.592 249.424 474.808C248.928 475.016 248.364 475.12 247.732 475.12ZM257.299 475C257.219 475 257.151 474.972 257.095 474.916C257.039 474.86 257.011 474.792 257.011 474.712V473.176H253.207C253.127 473.176 253.059 473.148 253.003 473.092C252.947 473.036 252.919 472.968 252.919 472.888V472.072C252.919 471.944 252.963 471.824 253.051 471.712L256.591 466.804C256.631 466.74 256.691 466.692 256.771 466.66C256.851 466.62 256.939 466.6 257.035 466.6H258.343C258.431 466.6 258.499 466.628 258.547 466.684C258.603 466.732 258.631 466.8 258.631 466.888V471.76H259.699C259.787 471.76 259.859 471.788 259.915 471.844C259.971 471.892 259.999 471.96 259.999 472.048V472.888C259.999 472.968 259.971 473.036 259.915 473.092C259.859 473.148 259.791 473.176 259.711 473.176H258.631V474.712C258.631 474.792 258.603 474.86 258.547 474.916C258.499 474.972 258.431 475 258.343 475H257.299ZM257.047 471.808V468.34L254.587 471.808H257.047Z" fill="#606160"/>
<path d="M296.828 207C296.748 207 296.68 206.972 296.624 206.916C296.568 206.86 296.54 206.792 296.54 206.712V206.1C296.54 205.884 296.64 205.696 296.84 205.536L298.736 203.652C299.56 203.004 300.132 202.5 300.452 202.14C300.78 201.772 300.944 201.412 300.944 201.06C300.944 200.684 300.84 200.388 300.632 200.172C300.432 199.956 300.128 199.848 299.72 199.848C299.32 199.848 299.004 199.968 298.772 200.208C298.54 200.44 298.396 200.744 298.34 201.12C298.316 201.216 298.272 201.288 298.208 201.336C298.144 201.376 298.072 201.396 297.992 201.396H296.924C296.852 201.396 296.792 201.372 296.744 201.324C296.696 201.276 296.672 201.22 296.672 201.156C296.688 200.684 296.816 200.244 297.056 199.836C297.296 199.42 297.644 199.088 298.1 198.84C298.556 198.584 299.092 198.456 299.708 198.456C300.348 198.456 300.888 198.568 301.328 198.792C301.776 199.008 302.112 199.308 302.336 199.692C302.56 200.076 302.672 200.512 302.672 201C302.672 201.536 302.52 202.02 302.216 202.452C301.92 202.884 301.464 203.348 300.848 203.844L299.144 205.572H302.564C302.652 205.572 302.72 205.6 302.768 205.656C302.824 205.704 302.852 205.772 302.852 205.86V206.712C302.852 206.792 302.824 206.86 302.768 206.916C302.72 206.972 302.652 207 302.564 207H296.828ZM306.17 207C306.098 207 306.038 206.976 305.99 206.928C305.942 206.872 305.918 206.808 305.918 206.736C305.918 206.712 305.926 206.676 305.942 206.628L308.834 200.028H305.066C304.986 200.028 304.918 200 304.862 199.944C304.806 199.888 304.778 199.82 304.778 199.74V198.9C304.778 198.812 304.802 198.74 304.85 198.684C304.906 198.628 304.978 198.6 305.066 198.6H310.334C310.422 198.6 310.49 198.628 310.538 198.684C310.594 198.74 310.622 198.812 310.622 198.9V199.644C310.622 199.804 310.586 199.976 310.514 200.16L307.646 206.712C307.558 206.904 307.43 207 307.262 207H306.17Z" fill="#606160"/>
<path d="M287.828 165C287.748 165 287.68 164.972 287.624 164.916C287.568 164.86 287.54 164.792 287.54 164.712V164.1C287.54 163.884 287.64 163.696 287.84 163.536L289.736 161.652C290.56 161.004 291.132 160.5 291.452 160.14C291.78 159.772 291.944 159.412 291.944 159.06C291.944 158.684 291.84 158.388 291.632 158.172C291.432 157.956 291.128 157.848 290.72 157.848C290.32 157.848 290.004 157.968 289.772 158.208C289.54 158.44 289.396 158.744 289.34 159.12C289.316 159.216 289.272 159.288 289.208 159.336C289.144 159.376 289.072 159.396 288.992 159.396H287.924C287.852 159.396 287.792 159.372 287.744 159.324C287.696 159.276 287.672 159.22 287.672 159.156C287.688 158.684 287.816 158.244 288.056 157.836C288.296 157.42 288.644 157.088 289.1 156.84C289.556 156.584 290.092 156.456 290.708 156.456C291.348 156.456 291.888 156.568 292.328 156.792C292.776 157.008 293.112 157.308 293.336 157.692C293.56 158.076 293.672 158.512 293.672 159C293.672 159.536 293.52 160.02 293.216 160.452C292.92 160.884 292.464 161.348 291.848 161.844L290.144 163.572H293.564C293.652 163.572 293.72 163.6 293.768 163.656C293.824 163.704 293.852 163.772 293.852 163.86V164.712C293.852 164.792 293.824 164.86 293.768 164.916C293.72 164.972 293.652 165 293.564 165H287.828ZM299.258 165.12C298.586 165.12 297.998 164.992 297.494 164.736C296.99 164.48 296.602 164.132 296.33 163.692C296.058 163.244 295.922 162.74 295.922 162.18C295.922 161.468 296.23 160.692 296.846 159.852L299.042 156.84C299.09 156.768 299.142 156.712 299.198 156.672C299.262 156.624 299.346 156.6 299.45 156.6H300.566C300.638 156.6 300.698 156.628 300.746 156.684C300.794 156.732 300.818 156.792 300.818 156.864C300.818 156.904 300.798 156.956 300.758 157.02L299.078 159.348C299.238 159.308 299.41 159.288 299.594 159.288C300.13 159.304 300.622 159.44 301.07 159.696C301.526 159.944 301.886 160.284 302.15 160.716C302.422 161.148 302.558 161.628 302.558 162.156C302.558 162.692 302.422 163.188 302.15 163.644C301.886 164.092 301.502 164.452 300.998 164.724C300.502 164.988 299.922 165.12 299.258 165.12ZM299.246 163.74C299.702 163.74 300.086 163.604 300.398 163.332C300.71 163.052 300.866 162.664 300.866 162.168C300.866 161.68 300.71 161.3 300.398 161.028C300.086 160.748 299.702 160.608 299.246 160.608C298.79 160.608 298.406 160.748 298.094 161.028C297.782 161.3 297.626 161.68 297.626 162.168C297.626 162.664 297.782 163.052 298.094 163.332C298.406 163.604 298.79 163.74 299.246 163.74Z" fill="#606160"/>
<path d="M274.828 129C274.748 129 274.68 128.972 274.624 128.916C274.568 128.86 274.54 128.792 274.54 128.712V128.1C274.54 127.884 274.64 127.696 274.84 127.536L276.736 125.652C277.56 125.004 278.132 124.5 278.452 124.14C278.78 123.772 278.944 123.412 278.944 123.06C278.944 122.684 278.84 122.388 278.632 122.172C278.432 121.956 278.128 121.848 277.72 121.848C277.32 121.848 277.004 121.968 276.772 122.208C276.54 122.44 276.396 122.744 276.34 123.12C276.316 123.216 276.272 123.288 276.208 123.336C276.144 123.376 276.072 123.396 275.992 123.396H274.924C274.852 123.396 274.792 123.372 274.744 123.324C274.696 123.276 274.672 123.22 274.672 123.156C274.688 122.684 274.816 122.244 275.056 121.836C275.296 121.42 275.644 121.088 276.1 120.84C276.556 120.584 277.092 120.456 277.708 120.456C278.348 120.456 278.888 120.568 279.328 120.792C279.776 121.008 280.112 121.308 280.336 121.692C280.56 122.076 280.672 122.512 280.672 123C280.672 123.536 280.52 124.02 280.216 124.452C279.92 124.884 279.464 125.348 278.848 125.844L277.144 127.572H280.564C280.652 127.572 280.72 127.6 280.768 127.656C280.824 127.704 280.852 127.772 280.852 127.86V128.712C280.852 128.792 280.824 128.86 280.768 128.916C280.72 128.972 280.652 129 280.564 129H274.828ZM286.102 129.132C285.438 129.132 284.866 129.02 284.386 128.796C283.914 128.572 283.55 128.276 283.294 127.908C283.046 127.54 282.914 127.144 282.898 126.72V126.696C282.898 126.632 282.922 126.58 282.97 126.54C283.018 126.5 283.078 126.48 283.15 126.48H284.266C284.45 126.48 284.57 126.56 284.626 126.72C284.738 127.072 284.922 127.332 285.178 127.5C285.442 127.668 285.75 127.752 286.102 127.752C286.55 127.752 286.922 127.616 287.218 127.344C287.522 127.072 287.674 126.692 287.674 126.204C287.674 125.772 287.522 125.42 287.218 125.148C286.922 124.876 286.55 124.74 286.102 124.74C285.862 124.74 285.666 124.772 285.514 124.836C285.362 124.9 285.214 124.988 285.07 125.1C284.974 125.172 284.898 125.224 284.842 125.256C284.794 125.28 284.734 125.292 284.662 125.292H283.558C283.486 125.292 283.422 125.268 283.366 125.22C283.318 125.164 283.294 125.1 283.294 125.028L283.714 120.924C283.722 120.828 283.754 120.752 283.81 120.696C283.874 120.632 283.954 120.6 284.05 120.6H288.562C288.642 120.6 288.71 120.628 288.766 120.684C288.822 120.74 288.85 120.808 288.85 120.888V121.692C288.85 121.772 288.822 121.84 288.766 121.896C288.71 121.952 288.642 121.98 288.562 121.98H285.094L284.902 123.936C285.294 123.664 285.818 123.528 286.474 123.528C286.994 123.528 287.474 123.64 287.914 123.864C288.362 124.08 288.718 124.396 288.982 124.812C289.246 125.22 289.378 125.696 289.378 126.24C289.378 126.824 289.242 127.336 288.97 127.776C288.698 128.208 288.314 128.544 287.818 128.784C287.33 129.016 286.758 129.132 286.102 129.132Z" fill="#606160"/>
<path d="M254.828 95C254.748 95 254.68 94.972 254.624 94.916C254.568 94.86 254.54 94.792 254.54 94.712V94.1C254.54 93.884 254.64 93.696 254.84 93.536L256.736 91.652C257.56 91.004 258.132 90.5 258.452 90.14C258.78 89.772 258.944 89.412 258.944 89.06C258.944 88.684 258.84 88.388 258.632 88.172C258.432 87.956 258.128 87.848 257.72 87.848C257.32 87.848 257.004 87.968 256.772 88.208C256.54 88.44 256.396 88.744 256.34 89.12C256.316 89.216 256.272 89.288 256.208 89.336C256.144 89.376 256.072 89.396 255.992 89.396H254.924C254.852 89.396 254.792 89.372 254.744 89.324C254.696 89.276 254.672 89.22 254.672 89.156C254.688 88.684 254.816 88.244 255.056 87.836C255.296 87.42 255.644 87.088 256.1 86.84C256.556 86.584 257.092 86.456 257.708 86.456C258.348 86.456 258.888 86.568 259.328 86.792C259.776 87.008 260.112 87.308 260.336 87.692C260.56 88.076 260.672 88.512 260.672 89C260.672 89.536 260.52 90.02 260.216 90.452C259.92 90.884 259.464 91.348 258.848 91.844L257.144 93.572H260.564C260.652 93.572 260.72 93.6 260.768 93.656C260.824 93.704 260.852 93.772 260.852 93.86V94.712C260.852 94.792 260.824 94.86 260.768 94.916C260.72 94.972 260.652 95 260.564 95H254.828ZM267.088 95C267.008 95 266.94 94.972 266.884 94.916C266.828 94.86 266.8 94.792 266.8 94.712V93.176H262.996C262.916 93.176 262.848 93.148 262.792 93.092C262.736 93.036 262.708 92.968 262.708 92.888V92.072C262.708 91.944 262.752 91.824 262.84 91.712L266.38 86.804C266.42 86.74 266.48 86.692 266.56 86.66C266.64 86.62 266.728 86.6 266.824 86.6H268.132C268.22 86.6 268.288 86.628 268.336 86.684C268.392 86.732 268.42 86.8 268.42 86.888V91.76H269.488C269.576 91.76 269.648 91.788 269.704 91.844C269.76 91.892 269.788 91.96 269.788 92.048V92.888C269.788 92.968 269.76 93.036 269.704 93.092C269.648 93.148 269.58 93.176 269.5 93.176H268.42V94.712C268.42 94.792 268.392 94.86 268.336 94.916C268.288 94.972 268.22 95 268.132 95H267.088ZM266.836 91.808V88.34L264.376 91.808H266.836Z" fill="#606160"/>
<path d="M238.828 63C238.748 63 238.68 62.972 238.624 62.916C238.568 62.86 238.54 62.792 238.54 62.712V62.1C238.54 61.884 238.64 61.696 238.84 61.536L240.736 59.652C241.56 59.004 242.132 58.5 242.452 58.14C242.78 57.772 242.944 57.412 242.944 57.06C242.944 56.684 242.84 56.388 242.632 56.172C242.432 55.956 242.128 55.848 241.72 55.848C241.32 55.848 241.004 55.968 240.772 56.208C240.54 56.44 240.396 56.744 240.34 57.12C240.316 57.216 240.272 57.288 240.208 57.336C240.144 57.376 240.072 57.396 239.992 57.396H238.924C238.852 57.396 238.792 57.372 238.744 57.324C238.696 57.276 238.672 57.22 238.672 57.156C238.688 56.684 238.816 56.244 239.056 55.836C239.296 55.42 239.644 55.088 240.1 54.84C240.556 54.584 241.092 54.456 241.708 54.456C242.348 54.456 242.888 54.568 243.328 54.792C243.776 55.008 244.112 55.308 244.336 55.692C244.56 56.076 244.672 56.512 244.672 57C244.672 57.536 244.52 58.02 244.216 58.452C243.92 58.884 243.464 59.348 242.848 59.844L241.144 61.572H244.564C244.652 61.572 244.72 61.6 244.768 61.656C244.824 61.704 244.852 61.772 244.852 61.86V62.712C244.852 62.792 244.824 62.86 244.768 62.916C244.72 62.972 244.652 63 244.564 63H238.828ZM250.162 63.12C249.458 63.12 248.858 63.008 248.362 62.784C247.874 62.56 247.506 62.28 247.258 61.944C247.018 61.6 246.89 61.248 246.874 60.888C246.874 60.816 246.898 60.76 246.946 60.72C247.002 60.672 247.066 60.648 247.138 60.648H248.218C248.394 60.648 248.51 60.728 248.566 60.888C248.742 61.464 249.278 61.752 250.174 61.752C250.662 61.752 251.046 61.64 251.326 61.416C251.606 61.184 251.746 60.856 251.746 60.432C251.746 59.632 251.246 59.232 250.246 59.232H249.01C248.922 59.232 248.85 59.204 248.794 59.148C248.738 59.092 248.71 59.024 248.71 58.944V58.44C248.71 58.312 248.766 58.192 248.878 58.08L251.026 55.98H247.594C247.514 55.98 247.446 55.952 247.39 55.896C247.334 55.84 247.306 55.772 247.306 55.692V54.9C247.306 54.812 247.33 54.74 247.378 54.684C247.434 54.628 247.506 54.6 247.594 54.6H252.742C252.83 54.6 252.902 54.628 252.958 54.684C253.014 54.74 253.042 54.812 253.042 54.9V55.62C253.042 55.74 252.99 55.852 252.886 55.956L250.81 58.092L250.954 58.104C251.722 58.168 252.33 58.4 252.778 58.8C253.234 59.2 253.462 59.772 253.462 60.516C253.462 61.044 253.318 61.504 253.03 61.896C252.75 62.288 252.358 62.592 251.854 62.808C251.358 63.016 250.794 63.12 250.162 63.12Z" fill="#606160"/>
<path d="M214.828 37C214.748 37 214.68 36.972 214.624 36.916C214.568 36.86 214.54 36.792 214.54 36.712V36.1C214.54 35.884 214.64 35.696 214.84 35.536L216.736 33.652C217.56 33.004 218.132 32.5 218.452 32.14C218.78 31.772 218.944 31.412 218.944 31.06C218.944 30.684 218.84 30.388 218.632 30.172C218.432 29.956 218.128 29.848 217.72 29.848C217.32 29.848 217.004 29.968 216.772 30.208C216.54 30.44 216.396 30.744 216.34 31.12C216.316 31.216 216.272 31.288 216.208 31.336C216.144 31.376 216.072 31.396 215.992 31.396H214.924C214.852 31.396 214.792 31.372 214.744 31.324C214.696 31.276 214.672 31.22 214.672 31.156C214.688 30.684 214.816 30.244 215.056 29.836C215.296 29.42 215.644 29.088 216.1 28.84C216.556 28.584 217.092 28.456 217.708 28.456C218.348 28.456 218.888 28.568 219.328 28.792C219.776 29.008 220.112 29.308 220.336 29.692C220.56 30.076 220.672 30.512 220.672 31C220.672 31.536 220.52 32.02 220.216 32.452C219.92 32.884 219.464 33.348 218.848 33.844L217.144 35.572H220.564C220.652 35.572 220.72 35.6 220.768 35.656C220.824 35.704 220.852 35.772 220.852 35.86V36.712C220.852 36.792 220.824 36.86 220.768 36.916C220.72 36.972 220.652 37 220.564 37H214.828ZM223.258 37C223.178 37 223.11 36.972 223.054 36.916C222.998 36.86 222.97 36.792 222.97 36.712V36.1C222.97 35.884 223.07 35.696 223.27 35.536L225.166 33.652C225.99 33.004 226.562 32.5 226.882 32.14C227.21 31.772 227.374 31.412 227.374 31.06C227.374 30.684 227.27 30.388 227.062 30.172C226.862 29.956 226.558 29.848 226.15 29.848C225.75 29.848 225.434 29.968 225.202 30.208C224.97 30.44 224.826 30.744 224.77 31.12C224.746 31.216 224.702 31.288 224.638 31.336C224.574 31.376 224.502 31.396 224.422 31.396H223.354C223.282 31.396 223.222 31.372 223.174 31.324C223.126 31.276 223.102 31.22 223.102 31.156C223.118 30.684 223.246 30.244 223.486 29.836C223.726 29.42 224.074 29.088 224.53 28.84C224.986 28.584 225.522 28.456 226.138 28.456C226.778 28.456 227.318 28.568 227.758 28.792C228.206 29.008 228.542 29.308 228.766 29.692C228.99 30.076 229.102 30.512 229.102 31C229.102 31.536 228.95 32.02 228.646 32.452C228.35 32.884 227.894 33.348 227.278 33.844L225.574 35.572H228.994C229.082 35.572 229.15 35.6 229.198 35.656C229.254 35.704 229.282 35.772 229.282 35.86V36.712C229.282 36.792 229.254 36.86 229.198 36.916C229.15 36.972 229.082 37 228.994 37H223.258Z" fill="#606160"/>
<path d="M178.828 22C178.748 22 178.68 21.972 178.624 21.916C178.568 21.86 178.54 21.792 178.54 21.712V21.1C178.54 20.884 178.64 20.696 178.84 20.536L180.736 18.652C181.56 18.004 182.132 17.5 182.452 17.14C182.78 16.772 182.944 16.412 182.944 16.06C182.944 15.684 182.84 15.388 182.632 15.172C182.432 14.956 182.128 14.848 181.72 14.848C181.32 14.848 181.004 14.968 180.772 15.208C180.54 15.44 180.396 15.744 180.34 16.12C180.316 16.216 180.272 16.288 180.208 16.336C180.144 16.376 180.072 16.396 179.992 16.396H178.924C178.852 16.396 178.792 16.372 178.744 16.324C178.696 16.276 178.672 16.22 178.672 16.156C178.688 15.684 178.816 15.244 179.056 14.836C179.296 14.42 179.644 14.088 180.1 13.84C180.556 13.584 181.092 13.456 181.708 13.456C182.348 13.456 182.888 13.568 183.328 13.792C183.776 14.008 184.112 14.308 184.336 14.692C184.56 15.076 184.672 15.512 184.672 16C184.672 16.536 184.52 17.02 184.216 17.452C183.92 17.884 183.464 18.348 182.848 18.844L181.144 20.572H184.564C184.652 20.572 184.72 20.6 184.768 20.656C184.824 20.704 184.852 20.772 184.852 20.86V21.712C184.852 21.792 184.824 21.86 184.768 21.916C184.72 21.972 184.652 22 184.564 22H178.828ZM189.754 22C189.674 22 189.606 21.972 189.55 21.916C189.494 21.86 189.466 21.792 189.466 21.712V15.496L187.642 16.9C187.594 16.94 187.538 16.96 187.474 16.96C187.378 16.96 187.298 16.916 187.234 16.828L186.73 16.18C186.69 16.116 186.67 16.056 186.67 16C186.67 15.904 186.714 15.824 186.802 15.76L189.49 13.684C189.562 13.628 189.662 13.6 189.79 13.6H190.846C190.934 13.6 191.002 13.628 191.05 13.684C191.106 13.732 191.134 13.8 191.134 13.888V21.712C191.134 21.792 191.106 21.86 191.05 21.916C191.002 21.972 190.934 22 190.846 22H189.754Z" fill="#606160"/>
<path d="M141.324 23C141.244 23 141.176 22.972 141.12 22.916C141.064 22.86 141.036 22.792 141.036 22.712V16.496L139.212 17.9C139.164 17.94 139.108 17.96 139.044 17.96C138.948 17.96 138.868 17.916 138.804 17.828L138.3 17.18C138.26 17.116 138.24 17.056 138.24 17C138.24 16.904 138.284 16.824 138.372 16.76L141.06 14.684C141.132 14.628 141.232 14.6 141.36 14.6H142.416C142.504 14.6 142.572 14.628 142.62 14.684C142.676 14.732 142.704 14.8 142.704 14.888V22.712C142.704 22.792 142.676 22.86 142.62 22.916C142.572 22.972 142.504 23 142.416 23H141.324ZM147.879 23C147.799 23 147.731 22.972 147.675 22.916C147.619 22.86 147.591 22.792 147.591 22.712V16.496L145.767 17.9C145.719 17.94 145.663 17.96 145.599 17.96C145.503 17.96 145.423 17.916 145.359 17.828L144.855 17.18C144.815 17.116 144.795 17.056 144.795 17C144.795 16.904 144.839 16.824 144.927 16.76L147.615 14.684C147.687 14.628 147.787 14.6 147.915 14.6H148.971C149.059 14.6 149.127 14.628 149.175 14.684C149.231 14.732 149.259 14.8 149.259 14.888V22.712C149.259 22.792 149.231 22.86 149.175 22.916C149.127 22.972 149.059 23 148.971 23H147.879Z" fill="#606160"/>
<path d="M106.324 37C106.244 37 106.176 36.972 106.12 36.916C106.064 36.86 106.036 36.792 106.036 36.712V30.496L104.212 31.9C104.164 31.94 104.108 31.96 104.044 31.96C103.948 31.96 103.868 31.916 103.804 31.828L103.3 31.18C103.26 31.116 103.24 31.056 103.24 31C103.24 30.904 103.284 30.824 103.372 30.76L106.06 28.684C106.132 28.628 106.232 28.6 106.36 28.6H107.416C107.504 28.6 107.572 28.628 107.62 28.684C107.676 28.732 107.704 28.8 107.704 28.888V36.712C107.704 36.792 107.676 36.86 107.62 36.916C107.572 36.972 107.504 37 107.416 37H106.324ZM110.383 37C110.303 37 110.235 36.972 110.179 36.916C110.123 36.86 110.095 36.792 110.095 36.712V36.1C110.095 35.884 110.195 35.696 110.395 35.536L112.291 33.652C113.115 33.004 113.687 32.5 114.007 32.14C114.335 31.772 114.499 31.412 114.499 31.06C114.499 30.684 114.395 30.388 114.187 30.172C113.987 29.956 113.683 29.848 113.275 29.848C112.875 29.848 112.559 29.968 112.327 30.208C112.095 30.44 111.951 30.744 111.895 31.12C111.871 31.216 111.827 31.288 111.763 31.336C111.699 31.376 111.627 31.396 111.547 31.396H110.479C110.407 31.396 110.347 31.372 110.299 31.324C110.251 31.276 110.227 31.22 110.227 31.156C110.243 30.684 110.371 30.244 110.611 29.836C110.851 29.42 111.199 29.088 111.655 28.84C112.111 28.584 112.647 28.456 113.263 28.456C113.903 28.456 114.443 28.568 114.883 28.792C115.331 29.008 115.667 29.308 115.891 29.692C116.115 30.076 116.227 30.512 116.227 31C116.227 31.536 116.075 32.02 115.771 32.452C115.475 32.884 115.019 33.348 114.403 33.844L112.699 35.572H116.119C116.207 35.572 116.275 35.6 116.323 35.656C116.379 35.704 116.407 35.772 116.407 35.86V36.712C116.407 36.792 116.379 36.86 116.323 36.916C116.275 36.972 116.207 37 116.119 37H110.383Z" fill="#606160"/>
<path d="M81.324 59C81.244 59 81.176 58.972 81.12 58.916C81.064 58.86 81.036 58.792 81.036 58.712V52.496L79.212 53.9C79.164 53.94 79.108 53.96 79.044 53.96C78.948 53.96 78.868 53.916 78.804 53.828L78.3 53.18C78.26 53.116 78.24 53.056 78.24 53C78.24 52.904 78.284 52.824 78.372 52.76L81.06 50.684C81.132 50.628 81.232 50.6 81.36 50.6H82.416C82.504 50.6 82.572 50.628 82.62 50.684C82.676 50.732 82.704 50.8 82.704 50.888V58.712C82.704 58.792 82.676 58.86 82.62 58.916C82.572 58.972 82.504 59 82.416 59H81.324ZM88.2867 59.12C87.5827 59.12 86.9827 59.008 86.4867 58.784C85.9987 58.56 85.6307 58.28 85.3827 57.944C85.1427 57.6 85.0147 57.248 84.9987 56.888C84.9987 56.816 85.0227 56.76 85.0707 56.72C85.1267 56.672 85.1907 56.648 85.2627 56.648H86.3427C86.5187 56.648 86.6347 56.728 86.6907 56.888C86.8667 57.464 87.4027 57.752 88.2987 57.752C88.7867 57.752 89.1707 57.64 89.4507 57.416C89.7307 57.184 89.8707 56.856 89.8707 56.432C89.8707 55.632 89.3707 55.232 88.3707 55.232H87.1347C87.0467 55.232 86.9747 55.204 86.9187 55.148C86.8627 55.092 86.8347 55.024 86.8347 54.944V54.44C86.8347 54.312 86.8907 54.192 87.0027 54.08L89.1507 51.98H85.7187C85.6387 51.98 85.5707 51.952 85.5147 51.896C85.4587 51.84 85.4307 51.772 85.4307 51.692V50.9C85.4307 50.812 85.4547 50.74 85.5027 50.684C85.5587 50.628 85.6307 50.6 85.7187 50.6H90.8667C90.9547 50.6 91.0267 50.628 91.0827 50.684C91.1387 50.74 91.1667 50.812 91.1667 50.9V51.62C91.1667 51.74 91.1147 51.852 91.0107 51.956L88.9347 54.092L89.0787 54.104C89.8467 54.168 90.4547 54.4 90.9027 54.8C91.3587 55.2 91.5867 55.772 91.5867 56.516C91.5867 57.044 91.4427 57.504 91.1547 57.896C90.8747 58.288 90.4827 58.592 89.9787 58.808C89.4827 59.016 88.9187 59.12 88.2867 59.12Z" fill="#606160"/>
<path d="M63.324 90C63.244 90 63.176 89.972 63.12 89.916C63.064 89.86 63.036 89.792 63.036 89.712V83.496L61.212 84.9C61.164 84.94 61.108 84.96 61.044 84.96C60.948 84.96 60.868 84.916 60.804 84.828L60.3 84.18C60.26 84.116 60.24 84.056 60.24 84C60.24 83.904 60.284 83.824 60.372 83.76L63.06 81.684C63.132 81.628 63.232 81.6 63.36 81.6H64.416C64.504 81.6 64.572 81.628 64.62 81.684C64.676 81.732 64.704 81.8 64.704 81.888V89.712C64.704 89.792 64.676 89.86 64.62 89.916C64.572 89.972 64.504 90 64.416 90H63.324ZM71.2947 90C71.2147 90 71.1467 89.972 71.0907 89.916C71.0347 89.86 71.0067 89.792 71.0067 89.712V88.176H67.2027C67.1227 88.176 67.0547 88.148 66.9987 88.092C66.9427 88.036 66.9147 87.968 66.9147 87.888V87.072C66.9147 86.944 66.9587 86.824 67.0467 86.712L70.5867 81.804C70.6267 81.74 70.6867 81.692 70.7667 81.66C70.8467 81.62 70.9347 81.6 71.0307 81.6H72.3387C72.4267 81.6 72.4947 81.628 72.5427 81.684C72.5987 81.732 72.6267 81.8 72.6267 81.888V86.76H73.6947C73.7827 86.76 73.8547 86.788 73.9107 86.844C73.9667 86.892 73.9947 86.96 73.9947 87.048V87.888C73.9947 87.968 73.9667 88.036 73.9107 88.092C73.8547 88.148 73.7867 88.176 73.7067 88.176H72.6267V89.712C72.6267 89.792 72.5987 89.86 72.5427 89.916C72.4947 89.972 72.4267 90 72.3387 90H71.2947ZM71.0427 86.808V83.34L68.5827 86.808H71.0427Z" fill="#606160"/>
<path d="M25.0004 180.57C20.6004 178.97 16.8338 177.237 15.5004 176.57C13.0009 173.57 14.5004 160.07 14.0004 147.57C13.6004 137.57 23.1671 133.737 28.0004 133.07L38.0004 134.57L59.0004 141.07C59.0004 142.737 59.4004 146.77 61.0004 149.57C63.0004 153.07 63.0004 155.57 55.5004 166.07C49.5004 174.47 49.0004 183.904 49.5004 187.57C44.5004 173.07 30.5004 182.57 25.0004 180.57Z" fill="#EA5A43" stroke="#AAAAAA" stroke-width="2"/>
<path d="M26.0002 118.068C23.2002 121.268 27.1668 130.734 29.5002 135.068C41.5003 148.068 54 144.568 63.5 138.068C73 131.568 70 122.568 70.5 116.568C70.9 111.768 68.3333 106.234 67 104.068C62.3333 100.568 51.9 93.8678 47.5 95.0678C42 96.5678 29.5002 114.068 26.0002 118.068Z" fill="white" stroke="#AAAAAA" stroke-width="2"/>
<path d="M45.324 124C45.244 124 45.176 123.972 45.12 123.916C45.064 123.86 45.036 123.792 45.036 123.712V117.496L43.212 118.9C43.164 118.94 43.108 118.96 43.044 118.96C42.948 118.96 42.868 118.916 42.804 118.828L42.3 118.18C42.26 118.116 42.24 118.056 42.24 118C42.24 117.904 42.284 117.824 42.372 117.76L45.06 115.684C45.132 115.628 45.232 115.6 45.36 115.6H46.416C46.504 115.6 46.572 115.628 46.62 115.684C46.676 115.732 46.704 115.8 46.704 115.888V123.712C46.704 123.792 46.676 123.86 46.62 123.916C46.572 123.972 46.504 124 46.416 124H45.324ZM52.2267 124.132C51.5627 124.132 50.9907 124.02 50.5107 123.796C50.0387 123.572 49.6747 123.276 49.4187 122.908C49.1707 122.54 49.0387 122.144 49.0227 121.72V121.696C49.0227 121.632 49.0467 121.58 49.0947 121.54C49.1427 121.5 49.2027 121.48 49.2747 121.48H50.3907C50.5747 121.48 50.6947 121.56 50.7507 121.72C50.8627 122.072 51.0467 122.332 51.3027 122.5C51.5667 122.668 51.8747 122.752 52.2267 122.752C52.6747 122.752 53.0467 122.616 53.3427 122.344C53.6467 122.072 53.7987 121.692 53.7987 121.204C53.7987 120.772 53.6467 120.42 53.3427 120.148C53.0467 119.876 52.6747 119.74 52.2267 119.74C51.9867 119.74 51.7907 119.772 51.6387 119.836C51.4867 119.9 51.3387 119.988 51.1947 120.1C51.0987 120.172 51.0227 120.224 50.9667 120.256C50.9187 120.28 50.8587 120.292 50.7867 120.292H49.6827C49.6107 120.292 49.5467 120.268 49.4907 120.22C49.4427 120.164 49.4187 120.1 49.4187 120.028L49.8387 115.924C49.8467 115.828 49.8787 115.752 49.9347 115.696C49.9987 115.632 50.0787 115.6 50.1747 115.6H54.6867C54.7667 115.6 54.8347 115.628 54.8907 115.684C54.9467 115.74 54.9747 115.808 54.9747 115.888V116.692C54.9747 116.772 54.9467 116.84 54.8907 116.896C54.8347 116.952 54.7667 116.98 54.6867 116.98H51.2187L51.0267 118.936C51.4187 118.664 51.9427 118.528 52.5987 118.528C53.1187 118.528 53.5987 118.64 54.0387 118.864C54.4867 119.08 54.8427 119.396 55.1067 119.812C55.3707 120.22 55.5027 120.696 55.5027 121.24C55.5027 121.824 55.3667 122.336 55.0947 122.776C54.8227 123.208 54.4387 123.544 53.9427 123.784C53.4547 124.016 52.8827 124.132 52.2267 124.132Z" fill="#606160"/>
<path d="M30.324 161C30.244 161 30.176 160.972 30.12 160.916C30.064 160.86 30.036 160.792 30.036 160.712V154.496L28.212 155.9C28.164 155.94 28.108 155.96 28.044 155.96C27.948 155.96 27.868 155.916 27.804 155.828L27.3 155.18C27.26 155.116 27.24 155.056 27.24 155C27.24 154.904 27.284 154.824 27.372 154.76L30.06 152.684C30.132 152.628 30.232 152.6 30.36 152.6H31.416C31.504 152.6 31.572 152.628 31.62 152.684C31.676 152.732 31.704 152.8 31.704 152.888V160.712C31.704 160.792 31.676 160.86 31.62 160.916C31.572 160.972 31.504 161 31.416 161H30.324ZM37.3827 161.12C36.7107 161.12 36.1227 160.992 35.6187 160.736C35.1147 160.48 34.7267 160.132 34.4547 159.692C34.1827 159.244 34.0467 158.74 34.0467 158.18C34.0467 157.468 34.3547 156.692 34.9707 155.852L37.1667 152.84C37.2147 152.768 37.2667 152.712 37.3227 152.672C37.3867 152.624 37.4707 152.6 37.5747 152.6H38.6907C38.7627 152.6 38.8227 152.628 38.8707 152.684C38.9187 152.732 38.9427 152.792 38.9427 152.864C38.9427 152.904 38.9227 152.956 38.8827 153.02L37.2027 155.348C37.3627 155.308 37.5347 155.288 37.7187 155.288C38.2547 155.304 38.7467 155.44 39.1947 155.696C39.6507 155.944 40.0107 156.284 40.2747 156.716C40.5467 157.148 40.6827 157.628 40.6827 158.156C40.6827 158.692 40.5467 159.188 40.2747 159.644C40.0107 160.092 39.6267 160.452 39.1227 160.724C38.6267 160.988 38.0467 161.12 37.3827 161.12ZM37.3707 159.74C37.8267 159.74 38.2107 159.604 38.5227 159.332C38.8347 159.052 38.9907 158.664 38.9907 158.168C38.9907 157.68 38.8347 157.3 38.5227 157.028C38.2107 156.748 37.8267 156.608 37.3707 156.608C36.9147 156.608 36.5307 156.748 36.2187 157.028C35.9067 157.3 35.7507 157.68 35.7507 158.168C35.7507 158.664 35.9067 159.052 36.2187 159.332C36.5307 159.604 36.9147 159.74 37.3707 159.74Z" fill="white"/>
<path d="M24.324 202C24.244 202 24.176 201.972 24.12 201.916C24.064 201.86 24.036 201.792 24.036 201.712V195.496L22.212 196.9C22.164 196.94 22.108 196.96 22.044 196.96C21.948 196.96 21.868 196.916 21.804 196.828L21.3 196.18C21.26 196.116 21.24 196.056 21.24 196C21.24 195.904 21.284 195.824 21.372 195.76L24.06 193.684C24.132 193.628 24.232 193.6 24.36 193.6H25.416C25.504 193.6 25.572 193.628 25.62 193.684C25.676 193.732 25.704 193.8 25.704 193.888V201.712C25.704 201.792 25.676 201.86 25.62 201.916C25.572 201.972 25.504 202 25.416 202H24.324ZM29.2947 202C29.2227 202 29.1627 201.976 29.1147 201.928C29.0667 201.872 29.0427 201.808 29.0427 201.736C29.0427 201.712 29.0507 201.676 29.0667 201.628L31.9587 195.028H28.1907C28.1107 195.028 28.0427 195 27.9867 194.944C27.9307 194.888 27.9027 194.82 27.9027 194.74V193.9C27.9027 193.812 27.9267 193.74 27.9747 193.684C28.0307 193.628 28.1027 193.6 28.1907 193.6H33.4587C33.5467 193.6 33.6147 193.628 33.6627 193.684C33.7187 193.74 33.7467 193.812 33.7467 193.9V194.644C33.7467 194.804 33.7107 194.976 33.6387 195.16L30.7707 201.712C30.6827 201.904 30.5547 202 30.3867 202H29.2947Z" fill="#606160"/>
<path d="M24.324 244C24.244 244 24.176 243.972 24.12 243.916C24.064 243.86 24.036 243.792 24.036 243.712V237.496L22.212 238.9C22.164 238.94 22.108 238.96 22.044 238.96C21.948 238.96 21.868 238.916 21.804 238.828L21.3 238.18C21.26 238.116 21.24 238.056 21.24 238C21.24 237.904 21.284 237.824 21.372 237.76L24.06 235.684C24.132 235.628 24.232 235.6 24.36 235.6H25.416C25.504 235.6 25.572 235.628 25.62 235.684C25.676 235.732 25.704 235.8 25.704 235.888V243.712C25.704 243.792 25.676 243.86 25.62 243.916C25.572 243.972 25.504 244 25.416 244H24.324ZM31.4907 244.12C30.7947 244.12 30.1947 244.012 29.6907 243.796C29.1947 243.572 28.8147 243.264 28.5507 242.872C28.2867 242.48 28.1547 242.032 28.1547 241.528C28.1547 241.08 28.2667 240.684 28.4907 240.34C28.7147 239.988 29.0147 239.72 29.3907 239.536C29.0947 239.352 28.8627 239.116 28.6947 238.828C28.5347 238.532 28.4547 238.196 28.4547 237.82C28.4547 237.116 28.7187 236.552 29.2467 236.128C29.7827 235.696 30.5307 235.48 31.4907 235.48C32.4427 235.48 33.1827 235.692 33.7107 236.116C34.2387 236.54 34.5027 237.104 34.5027 237.808C34.5027 238.184 34.4227 238.52 34.2627 238.816C34.1107 239.104 33.8867 239.344 33.5907 239.536C33.9747 239.72 34.2747 239.988 34.4907 240.34C34.7147 240.684 34.8267 241.084 34.8267 241.54C34.8267 242.044 34.6947 242.492 34.4307 242.884C34.1667 243.276 33.7827 243.58 33.2787 243.796C32.7747 244.012 32.1787 244.12 31.4907 244.12ZM31.4907 239.02C31.9067 239.012 32.2507 238.904 32.5227 238.696C32.8027 238.488 32.9427 238.216 32.9427 237.88C32.9427 237.528 32.8067 237.248 32.5347 237.04C32.2627 236.832 31.9147 236.728 31.4907 236.728C31.0667 236.728 30.7187 236.832 30.4467 237.04C30.1747 237.248 30.0387 237.528 30.0387 237.88C30.0387 238.224 30.1747 238.5 30.4467 238.708C30.7187 238.916 31.0667 239.02 31.4907 239.02ZM31.4907 242.872C31.9627 242.872 32.3587 242.752 32.6787 242.512C32.9987 242.264 33.1587 241.94 33.1587 241.54C33.1587 241.14 32.9987 240.82 32.6787 240.58C32.3587 240.332 31.9627 240.208 31.4907 240.208C31.0107 240.208 30.6107 240.328 30.2907 240.568C29.9787 240.808 29.8227 241.132 29.8227 241.54C29.8227 241.948 29.9787 242.272 30.2907 242.512C30.6107 242.752 31.0107 242.872 31.4907 242.872Z" fill="#606160"/>
<path d="M220.014 487.615C218.414 490.815 218.014 499.615 218.014 503.615C218.347 503.615 219.614 504.715 222.014 509.115C225.014 514.615 226.514 512.615 234.014 514.115C241.514 515.615 245.014 510.615 247.514 503.615C250.014 496.615 243.514 487.615 238.014 484.115C232.514 480.615 222.014 483.615 220.014 487.615Z" fill="white" stroke="#AAAAAA" stroke-width="2"/>
<path d="M201.514 499.614C201.914 502.814 198.347 513.947 196.514 519.114V519.614C195.014 520.947 193.314 524.414 198.514 527.614C205.014 531.614 211.514 531.114 220.514 525.114C229.514 519.114 225.014 511.614 220.514 505.614C216.014 499.614 201.014 495.614 201.514 499.614Z" fill="white" stroke="#AAAAAA" stroke-width="2"/>
<path d="M206.732 517.69C206.028 517.69 205.428 517.578 204.932 517.354C204.444 517.13 204.076 516.85 203.828 516.514C203.588 516.17 203.46 515.818 203.444 515.458C203.444 515.386 203.468 515.33 203.516 515.29C203.572 515.242 203.636 515.218 203.708 515.218H204.788C204.964 515.218 205.08 515.298 205.136 515.458C205.312 516.034 205.848 516.322 206.744 516.322C207.232 516.322 207.616 516.21 207.896 515.986C208.176 515.754 208.316 515.426 208.316 515.002C208.316 514.202 207.816 513.802 206.816 513.802H205.58C205.492 513.802 205.42 513.774 205.364 513.718C205.308 513.662 205.28 513.594 205.28 513.514V513.01C205.28 512.882 205.336 512.762 205.448 512.65L207.596 510.55H204.164C204.084 510.55 204.016 510.522 203.96 510.466C203.904 510.41 203.876 510.342 203.876 510.262V509.47C203.876 509.382 203.9 509.31 203.948 509.254C204.004 509.198 204.076 509.17 204.164 509.17H209.312C209.4 509.17 209.472 509.198 209.528 509.254C209.584 509.31 209.612 509.382 209.612 509.47V510.19C209.612 510.31 209.56 510.422 209.456 510.526L207.38 512.662L207.524 512.674C208.292 512.738 208.9 512.97 209.348 513.37C209.804 513.77 210.032 514.342 210.032 515.086C210.032 515.614 209.888 516.074 209.6 516.466C209.32 516.858 208.928 517.162 208.424 517.378C207.928 517.586 207.364 517.69 206.732 517.69ZM212.387 517.57C212.307 517.57 212.239 517.542 212.183 517.486C212.127 517.43 212.099 517.362 212.099 517.282V516.67C212.099 516.454 212.199 516.266 212.399 516.106L214.295 514.222C215.119 513.574 215.691 513.07 216.011 512.71C216.339 512.342 216.503 511.982 216.503 511.63C216.503 511.254 216.399 510.958 216.191 510.742C215.991 510.526 215.687 510.418 215.279 510.418C214.879 510.418 214.563 510.538 214.331 510.778C214.099 511.01 213.955 511.314 213.899 511.69C213.875 511.786 213.831 511.858 213.767 511.906C213.703 511.946 213.631 511.966 213.551 511.966H212.483C212.411 511.966 212.351 511.942 212.303 511.894C212.255 511.846 212.231 511.79 212.231 511.726C212.247 511.254 212.375 510.814 212.615 510.406C212.855 509.99 213.203 509.658 213.659 509.41C214.115 509.154 214.651 509.026 215.267 509.026C215.907 509.026 216.447 509.138 216.887 509.362C217.335 509.578 217.671 509.878 217.895 510.262C218.119 510.646 218.231 511.082 218.231 511.57C218.231 512.106 218.079 512.59 217.775 513.022C217.479 513.454 217.023 513.918 216.407 514.414L214.703 516.142H218.123C218.211 516.142 218.279 516.17 218.327 516.226C218.383 516.274 218.411 516.342 218.411 516.43V517.282C218.411 517.362 218.383 517.43 218.327 517.486C218.279 517.542 218.211 517.57 218.123 517.57H212.387Z" fill="#606160"/>
<path d="M229.732 499.69C229.028 499.69 228.428 499.578 227.932 499.354C227.444 499.13 227.076 498.85 226.828 498.514C226.588 498.17 226.46 497.818 226.444 497.458C226.444 497.386 226.468 497.33 226.516 497.29C226.572 497.242 226.636 497.218 226.708 497.218H227.788C227.964 497.218 228.08 497.298 228.136 497.458C228.312 498.034 228.848 498.322 229.744 498.322C230.232 498.322 230.616 498.21 230.896 497.986C231.176 497.754 231.316 497.426 231.316 497.002C231.316 496.202 230.816 495.802 229.816 495.802H228.58C228.492 495.802 228.42 495.774 228.364 495.718C228.308 495.662 228.28 495.594 228.28 495.514V495.01C228.28 494.882 228.336 494.762 228.448 494.65L230.596 492.55H227.164C227.084 492.55 227.016 492.522 226.96 492.466C226.904 492.41 226.876 492.342 226.876 492.262V491.47C226.876 491.382 226.9 491.31 226.948 491.254C227.004 491.198 227.076 491.17 227.164 491.17H232.312C232.4 491.17 232.472 491.198 232.528 491.254C232.584 491.31 232.612 491.382 232.612 491.47V492.19C232.612 492.31 232.56 492.422 232.456 492.526L230.38 494.662L230.524 494.674C231.292 494.738 231.9 494.97 232.348 495.37C232.804 495.77 233.032 496.342 233.032 497.086C233.032 497.614 232.888 498.074 232.6 498.466C232.32 498.858 231.928 499.162 231.424 499.378C230.928 499.586 230.364 499.69 229.732 499.69ZM238.291 499.69C237.587 499.69 236.987 499.578 236.491 499.354C236.003 499.13 235.635 498.85 235.387 498.514C235.147 498.17 235.019 497.818 235.003 497.458C235.003 497.386 235.027 497.33 235.075 497.29C235.131 497.242 235.195 497.218 235.267 497.218H236.347C236.523 497.218 236.639 497.298 236.695 497.458C236.871 498.034 237.407 498.322 238.303 498.322C238.791 498.322 239.175 498.21 239.455 497.986C239.735 497.754 239.875 497.426 239.875 497.002C239.875 496.202 239.375 495.802 238.375 495.802H237.139C237.051 495.802 236.979 495.774 236.923 495.718C236.867 495.662 236.839 495.594 236.839 495.514V495.01C236.839 494.882 236.895 494.762 237.007 494.65L239.155 492.55H235.723C235.643 492.55 235.575 492.522 235.519 492.466C235.463 492.41 235.435 492.342 235.435 492.262V491.47C235.435 491.382 235.459 491.31 235.507 491.254C235.563 491.198 235.635 491.17 235.723 491.17H240.871C240.959 491.17 241.031 491.198 241.087 491.254C241.143 491.31 241.171 491.382 241.171 491.47V492.19C241.171 492.31 241.119 492.422 241.015 492.526L238.939 494.662L239.083 494.674C239.851 494.738 240.459 494.97 240.907 495.37C241.363 495.77 241.591 496.342 241.591 497.086C241.591 497.614 241.447 498.074 241.159 498.466C240.879 498.858 240.487 499.162 239.983 499.378C239.487 499.586 238.923 499.69 238.291 499.69Z" fill="#606160"/>
<path d="M179.5 505.07C173.5 503.07 167.5 526.57 167.5 527.57C164.333 528.237 160.6 530.17 171 532.57C184 535.57 201 529.07 199 524.07C197 519.07 185.5 507.07 179.5 505.07Z" fill="white" stroke="#AAAAAA" stroke-width="2"/>
<path d="M153 507.571C151 510.771 141.834 520.571 137.5 525.071C134.5 527.571 135 529.571 137.5 530.571C140 531.571 169 539.071 168.5 528.571C168 518.071 155.5 503.571 153 507.571Z" fill="white" stroke="#AAAAAA" stroke-width="2"/>
<path d="M129 500.567C125.8 501.767 119 505.4 116 507.067C112.167 504.9 105.6 503.767 110 516.567C115.5 532.567 135 533.567 137 529.067C139 524.567 136.5 522.567 137 511.067C137.5 499.567 133 499.067 129 500.567Z" fill="white" stroke="#AAAAAA" stroke-width="2"/>
<path d="M110.499 488.069C106.499 488.869 98.1653 489.736 94.4987 490.069C93.6653 489.403 91.4987 489.469 89.4987 495.069C86.9987 502.069 80.4984 511.569 88.4987 517.069C97.374 523.171 111.499 517.069 115.499 507.069C119.499 497.069 115.499 487.069 110.499 488.069Z" fill="white" stroke="#AAAAAA" stroke-width="2"/>
<path d="M99.5008 469.07C95.9008 457.87 83.3341 453.07 77.5008 452.07C76.5008 451.737 74.2009 451.07 73.0008 451.07C71.5006 451.07 62.5008 458.07 62.0008 462.57C61.5008 467.07 61.0008 479.57 73.0008 490.57C85.0008 501.57 94.5008 492.07 96.0008 490.57C97.5008 489.07 104.001 483.07 99.5008 469.07Z" fill="white" stroke="#AAAAAA" stroke-width="2"/>
<path d="M78.4997 442.07C79.2997 430.07 66.833 418.737 60.4997 414.57C48.8994 408.97 40.3329 417.904 37.4997 423.07C35.833 426.904 33.6997 436.07 38.4997 442.07C44.4997 449.57 38.9997 455.07 50.4997 460.57C61.9997 466.07 64.9997 460.07 70.4997 455.07C75.9997 450.07 77.4997 457.07 78.4997 442.07Z" fill="white" stroke="#AAAAAA" stroke-width="2"/>
<path d="M58.001 416.07C66.801 391.67 53.3343 376.904 45.501 372.57C39.001 372.237 24.801 373.27 20.001 380.07C14.001 388.57 19.501 402.57 24.501 414.57C29.501 426.57 38.001 425.57 39.501 423.07C41.001 420.57 47.001 418.07 50.501 418.07C53.301 418.07 56.6677 416.737 58.001 416.07Z" fill="white" stroke="#AAAAAA" stroke-width="2"/>
<path d="M13.4986 360.57C6.29861 343.37 12.4986 335.07 16.4986 333.07C22.3321 328.737 35.999 322.37 43.999 331.57C53.999 343.07 46.999 344.07 49.499 360.07C51.999 376.07 29.999 385.57 25.499 382.07C20.999 378.57 22.4986 382.07 13.4986 360.57Z" fill="white" stroke="#AAAAAA" stroke-width="2"/>
<path d="M13.0002 306.57C10.2002 323.37 14.1668 329.904 16.5002 331.07C23.6668 332.737 39.3 335.37 44.5 332.57C51 329.07 49 310.07 50 298.07C51 286.07 38.5 284.07 30 284.07C21.5 284.07 16.5002 285.57 13.0002 306.57Z" fill="white" stroke="#AAAAAA" stroke-width="2"/>
<path d="M177.732 525.12C177.028 525.12 176.428 525.008 175.932 524.784C175.444 524.56 175.076 524.28 174.828 523.944C174.588 523.6 174.46 523.248 174.444 522.888C174.444 522.816 174.468 522.76 174.516 522.72C174.572 522.672 174.636 522.648 174.708 522.648H175.788C175.964 522.648 176.08 522.728 176.136 522.888C176.312 523.464 176.848 523.752 177.744 523.752C178.232 523.752 178.616 523.64 178.896 523.416C179.176 523.184 179.316 522.856 179.316 522.432C179.316 521.632 178.816 521.232 177.816 521.232H176.58C176.492 521.232 176.42 521.204 176.364 521.148C176.308 521.092 176.28 521.024 176.28 520.944V520.44C176.28 520.312 176.336 520.192 176.448 520.08L178.596 517.98H175.164C175.084 517.98 175.016 517.952 174.96 517.896C174.904 517.84 174.876 517.772 174.876 517.692V516.9C174.876 516.812 174.9 516.74 174.948 516.684C175.004 516.628 175.076 516.6 175.164 516.6H180.312C180.4 516.6 180.472 516.628 180.528 516.684C180.584 516.74 180.612 516.812 180.612 516.9V517.62C180.612 517.74 180.56 517.852 180.456 517.956L178.38 520.092L178.524 520.104C179.292 520.168 179.9 520.4 180.348 520.8C180.804 521.2 181.032 521.772 181.032 522.516C181.032 523.044 180.888 523.504 180.6 523.896C180.32 524.288 179.928 524.592 179.424 524.808C178.928 525.016 178.364 525.12 177.732 525.12ZM185.695 525C185.615 525 185.547 524.972 185.491 524.916C185.435 524.86 185.407 524.792 185.407 524.712V518.496L183.583 519.9C183.535 519.94 183.479 519.96 183.415 519.96C183.319 519.96 183.239 519.916 183.175 519.828L182.671 519.18C182.631 519.116 182.611 519.056 182.611 519C182.611 518.904 182.655 518.824 182.743 518.76L185.431 516.684C185.503 516.628 185.603 516.6 185.731 516.6H186.787C186.875 516.6 186.943 516.628 186.991 516.684C187.047 516.732 187.075 516.8 187.075 516.888V524.712C187.075 524.792 187.047 524.86 186.991 524.916C186.943 524.972 186.875 525 186.787 525H185.695Z" fill="#606160"/>
<path d="M150.74 527C150.66 527 150.592 526.972 150.536 526.916C150.48 526.86 150.452 526.792 150.452 526.712V525.176H146.648C146.568 525.176 146.5 525.148 146.444 525.092C146.388 525.036 146.36 524.968 146.36 524.888V524.072C146.36 523.944 146.404 523.824 146.492 523.712L150.032 518.804C150.072 518.74 150.132 518.692 150.212 518.66C150.292 518.62 150.38 518.6 150.476 518.6H151.784C151.872 518.6 151.94 518.628 151.988 518.684C152.044 518.732 152.072 518.8 152.072 518.888V523.76H153.14C153.228 523.76 153.3 523.788 153.356 523.844C153.412 523.892 153.44 523.96 153.44 524.048V524.888C153.44 524.968 153.412 525.036 153.356 525.092C153.3 525.148 153.232 525.176 153.152 525.176H152.072V526.712C152.072 526.792 152.044 526.86 151.988 526.916C151.94 526.972 151.872 527 151.784 527H150.74ZM150.488 523.808V520.34L148.028 523.808H150.488ZM157.883 527C157.803 527 157.735 526.972 157.679 526.916C157.623 526.86 157.595 526.792 157.595 526.712V520.496L155.771 521.9C155.723 521.94 155.667 521.96 155.603 521.96C155.507 521.96 155.427 521.916 155.363 521.828L154.859 521.18C154.819 521.116 154.799 521.056 154.799 521C154.799 520.904 154.843 520.824 154.931 520.76L157.619 518.684C157.691 518.628 157.791 518.6 157.919 518.6H158.975C159.063 518.6 159.131 518.628 159.179 518.684C159.235 518.732 159.263 518.8 159.263 518.888V526.712C159.263 526.792 159.235 526.86 159.179 526.916C159.131 526.972 159.063 527 158.975 527H157.883Z" fill="#606160"/>
<path d="M120.74 520C120.66 520 120.592 519.972 120.536 519.916C120.48 519.86 120.452 519.792 120.452 519.712V518.176H116.648C116.568 518.176 116.5 518.148 116.444 518.092C116.388 518.036 116.36 517.968 116.36 517.888V517.072C116.36 516.944 116.404 516.824 116.492 516.712L120.032 511.804C120.072 511.74 120.132 511.692 120.212 511.66C120.292 511.62 120.38 511.6 120.476 511.6H121.784C121.872 511.6 121.94 511.628 121.988 511.684C122.044 511.732 122.072 511.8 122.072 511.888V516.76H123.14C123.228 516.76 123.3 516.788 123.356 516.844C123.412 516.892 123.44 516.96 123.44 517.048V517.888C123.44 517.968 123.412 518.036 123.356 518.092C123.3 518.148 123.232 518.176 123.152 518.176H122.072V519.712C122.072 519.792 122.044 519.86 121.988 519.916C121.94 519.972 121.872 520 121.784 520H120.74ZM120.488 516.808V513.34L118.028 516.808H120.488ZM125.656 520C125.576 520 125.508 519.972 125.452 519.916C125.396 519.86 125.368 519.792 125.368 519.712V519.1C125.368 518.884 125.468 518.696 125.668 518.536L127.564 516.652C128.388 516.004 128.96 515.5 129.28 515.14C129.608 514.772 129.772 514.412 129.772 514.06C129.772 513.684 129.668 513.388 129.46 513.172C129.26 512.956 128.956 512.848 128.548 512.848C128.148 512.848 127.832 512.968 127.6 513.208C127.368 513.44 127.224 513.744 127.168 514.12C127.144 514.216 127.1 514.288 127.036 514.336C126.972 514.376 126.9 514.396 126.82 514.396H125.752C125.68 514.396 125.62 514.372 125.572 514.324C125.524 514.276 125.5 514.22 125.5 514.156C125.516 513.684 125.644 513.244 125.884 512.836C126.124 512.42 126.472 512.088 126.928 511.84C127.384 511.584 127.92 511.456 128.536 511.456C129.176 511.456 129.716 511.568 130.156 511.792C130.604 512.008 130.94 512.308 131.164 512.692C131.388 513.076 131.5 513.512 131.5 514C131.5 514.536 131.348 515.02 131.044 515.452C130.748 515.884 130.292 516.348 129.676 516.844L127.972 518.572H131.392C131.48 518.572 131.548 518.6 131.596 518.656C131.652 518.704 131.68 518.772 131.68 518.86V519.712C131.68 519.792 131.652 519.86 131.596 519.916C131.548 519.972 131.48 520 131.392 520H125.656Z" fill="#606160"/>
<path d="M96.74 508C96.66 508 96.592 507.972 96.536 507.916C96.48 507.86 96.452 507.792 96.452 507.712V506.176H92.648C92.568 506.176 92.5 506.148 92.444 506.092C92.388 506.036 92.36 505.968 92.36 505.888V505.072C92.36 504.944 92.404 504.824 92.492 504.712L96.032 499.804C96.072 499.74 96.132 499.692 96.212 499.66C96.292 499.62 96.38 499.6 96.476 499.6H97.784C97.872 499.6 97.94 499.628 97.988 499.684C98.044 499.732 98.072 499.8 98.072 499.888V504.76H99.14C99.228 504.76 99.3 504.788 99.356 504.844C99.412 504.892 99.44 504.96 99.44 505.048V505.888C99.44 505.968 99.412 506.036 99.356 506.092C99.3 506.148 99.232 506.176 99.152 506.176H98.072V507.712C98.072 507.792 98.044 507.86 97.988 507.916C97.94 507.972 97.872 508 97.784 508H96.74ZM96.488 504.808V501.34L94.028 504.808H96.488ZM104.56 508.12C103.856 508.12 103.256 508.008 102.76 507.784C102.272 507.56 101.904 507.28 101.656 506.944C101.416 506.6 101.288 506.248 101.272 505.888C101.272 505.816 101.296 505.76 101.344 505.72C101.4 505.672 101.464 505.648 101.536 505.648H102.616C102.792 505.648 102.908 505.728 102.964 505.888C103.14 506.464 103.676 506.752 104.572 506.752C105.06 506.752 105.444 506.64 105.724 506.416C106.004 506.184 106.144 505.856 106.144 505.432C106.144 504.632 105.644 504.232 104.644 504.232H103.408C103.32 504.232 103.248 504.204 103.192 504.148C103.136 504.092 103.108 504.024 103.108 503.944V503.44C103.108 503.312 103.164 503.192 103.276 503.08L105.424 500.98H101.992C101.912 500.98 101.844 500.952 101.788 500.896C101.732 500.84 101.704 500.772 101.704 500.692V499.9C101.704 499.812 101.728 499.74 101.776 499.684C101.832 499.628 101.904 499.6 101.992 499.6H107.14C107.228 499.6 107.3 499.628 107.356 499.684C107.412 499.74 107.44 499.812 107.44 499.9V500.62C107.44 500.74 107.388 500.852 107.284 500.956L105.208 503.092L105.352 503.104C106.12 503.168 106.728 503.4 107.176 503.8C107.632 504.2 107.86 504.772 107.86 505.516C107.86 506.044 107.716 506.504 107.428 506.896C107.148 507.288 106.756 507.592 106.252 507.808C105.756 508.016 105.192 508.12 104.56 508.12Z" fill="#606160"/>
<path d="M77.74 478C77.66 478 77.592 477.972 77.536 477.916C77.48 477.86 77.452 477.792 77.452 477.712V476.176H73.648C73.568 476.176 73.5 476.148 73.444 476.092C73.388 476.036 73.36 475.968 73.36 475.888V475.072C73.36 474.944 73.404 474.824 73.492 474.712L77.032 469.804C77.072 469.74 77.132 469.692 77.212 469.66C77.292 469.62 77.38 469.6 77.476 469.6H78.784C78.872 469.6 78.94 469.628 78.988 469.684C79.044 469.732 79.072 469.8 79.072 469.888V474.76H80.14C80.228 474.76 80.3 474.788 80.356 474.844C80.412 474.892 80.44 474.96 80.44 475.048V475.888C80.44 475.968 80.412 476.036 80.356 476.092C80.3 476.148 80.232 476.176 80.152 476.176H79.072V477.712C79.072 477.792 79.044 477.86 78.988 477.916C78.94 477.972 78.872 478 78.784 478H77.74ZM77.488 474.808V471.34L75.028 474.808H77.488ZM86.5681 478C86.4881 478 86.4201 477.972 86.3641 477.916C86.3081 477.86 86.2801 477.792 86.2801 477.712V476.176H82.4761C82.3961 476.176 82.3281 476.148 82.2721 476.092C82.2161 476.036 82.1881 475.968 82.1881 475.888V475.072C82.1881 474.944 82.2321 474.824 82.3201 474.712L85.8601 469.804C85.9001 469.74 85.9601 469.692 86.0401 469.66C86.1201 469.62 86.2081 469.6 86.3041 469.6H87.6121C87.7001 469.6 87.7681 469.628 87.8161 469.684C87.8721 469.732 87.9001 469.8 87.9001 469.888V474.76H88.9681C89.0561 474.76 89.1281 474.788 89.1841 474.844C89.2401 474.892 89.2681 474.96 89.2681 475.048V475.888C89.2681 475.968 89.2401 476.036 89.1841 476.092C89.1281 476.148 89.0601 476.176 88.9801 476.176H87.9001V477.712C87.9001 477.792 87.8721 477.86 87.8161 477.916C87.7681 477.972 87.7001 478 87.6121 478H86.5681ZM86.3161 474.808V471.34L83.8561 474.808H86.3161Z" fill="#606160"/>
<path d="M53.74 442C53.66 442 53.592 441.972 53.536 441.916C53.48 441.86 53.452 441.792 53.452 441.712V440.176H49.648C49.568 440.176 49.5 440.148 49.444 440.092C49.388 440.036 49.36 439.968 49.36 439.888V439.072C49.36 438.944 49.404 438.824 49.492 438.712L53.032 433.804C53.072 433.74 53.132 433.692 53.212 433.66C53.292 433.62 53.38 433.6 53.476 433.6H54.784C54.872 433.6 54.94 433.628 54.988 433.684C55.044 433.732 55.072 433.8 55.072 433.888V438.76H56.14C56.228 438.76 56.3 438.788 56.356 438.844C56.412 438.892 56.44 438.96 56.44 439.048V439.888C56.44 439.968 56.412 440.036 56.356 440.092C56.3 440.148 56.232 440.176 56.152 440.176H55.072V441.712C55.072 441.792 55.044 441.86 54.988 441.916C54.94 441.972 54.872 442 54.784 442H53.74ZM53.488 438.808V435.34L51.028 438.808H53.488ZM61.5001 442.132C60.8361 442.132 60.2641 442.02 59.7841 441.796C59.3121 441.572 58.9481 441.276 58.6921 440.908C58.4441 440.54 58.3121 440.144 58.2961 439.72V439.696C58.2961 439.632 58.3201 439.58 58.3681 439.54C58.4161 439.5 58.4761 439.48 58.5481 439.48H59.6641C59.8481 439.48 59.9681 439.56 60.0241 439.72C60.1361 440.072 60.3201 440.332 60.5761 440.5C60.8401 440.668 61.1481 440.752 61.5001 440.752C61.9481 440.752 62.3201 440.616 62.6161 440.344C62.9201 440.072 63.0721 439.692 63.0721 439.204C63.0721 438.772 62.9201 438.42 62.6161 438.148C62.3201 437.876 61.9481 437.74 61.5001 437.74C61.2601 437.74 61.0641 437.772 60.9121 437.836C60.7601 437.9 60.6121 437.988 60.4681 438.1C60.3721 438.172 60.2961 438.224 60.2401 438.256C60.1921 438.28 60.1321 438.292 60.0601 438.292H58.9561C58.8841 438.292 58.8201 438.268 58.7641 438.22C58.7161 438.164 58.6921 438.1 58.6921 438.028L59.1121 433.924C59.1201 433.828 59.1521 433.752 59.2081 433.696C59.2721 433.632 59.3521 433.6 59.4481 433.6H63.9601C64.0401 433.6 64.1081 433.628 64.1641 433.684C64.2201 433.74 64.2481 433.808 64.2481 433.888V434.692C64.2481 434.772 64.2201 434.84 64.1641 434.896C64.1081 434.952 64.0401 434.98 63.9601 434.98H60.4921L60.3001 436.936C60.6921 436.664 61.2161 436.528 61.8721 436.528C62.3921 436.528 62.8721 436.64 63.3121 436.864C63.7601 437.08 64.1161 437.396 64.3801 437.812C64.6441 438.22 64.7761 438.696 64.7761 439.24C64.7761 439.824 64.6401 440.336 64.3681 440.776C64.0961 441.208 63.7121 441.544 63.2161 441.784C62.7281 442.016 62.1561 442.132 61.5001 442.132Z" fill="#606160"/>
<path d="M35.74 404C35.66 404 35.592 403.972 35.536 403.916C35.48 403.86 35.452 403.792 35.452 403.712V402.176H31.648C31.568 402.176 31.5 402.148 31.444 402.092C31.388 402.036 31.36 401.968 31.36 401.888V401.072C31.36 400.944 31.404 400.824 31.492 400.712L35.032 395.804C35.072 395.74 35.132 395.692 35.212 395.66C35.292 395.62 35.38 395.6 35.476 395.6H36.784C36.872 395.6 36.94 395.628 36.988 395.684C37.044 395.732 37.072 395.8 37.072 395.888V400.76H38.14C38.228 400.76 38.3 400.788 38.356 400.844C38.412 400.892 38.44 400.96 38.44 401.048V401.888C38.44 401.968 38.412 402.036 38.356 402.092C38.3 402.148 38.232 402.176 38.152 402.176H37.072V403.712C37.072 403.792 37.044 403.86 36.988 403.916C36.94 403.972 36.872 404 36.784 404H35.74ZM35.488 400.808V397.34L33.028 400.808H35.488ZM43.6561 404.12C42.9841 404.12 42.3961 403.992 41.8921 403.736C41.3881 403.48 41.0001 403.132 40.7281 402.692C40.4561 402.244 40.3201 401.74 40.3201 401.18C40.3201 400.468 40.6281 399.692 41.2441 398.852L43.4401 395.84C43.4881 395.768 43.5401 395.712 43.5961 395.672C43.6601 395.624 43.7441 395.6 43.8481 395.6H44.9641C45.0361 395.6 45.0961 395.628 45.1441 395.684C45.1921 395.732 45.2161 395.792 45.2161 395.864C45.2161 395.904 45.1961 395.956 45.1561 396.02L43.4761 398.348C43.6361 398.308 43.8081 398.288 43.9921 398.288C44.5281 398.304 45.0201 398.44 45.4681 398.696C45.9241 398.944 46.2841 399.284 46.5481 399.716C46.8201 400.148 46.9561 400.628 46.9561 401.156C46.9561 401.692 46.8201 402.188 46.5481 402.644C46.2841 403.092 45.9001 403.452 45.3961 403.724C44.9001 403.988 44.3201 404.12 43.6561 404.12ZM43.6441 402.74C44.1001 402.74 44.4841 402.604 44.7961 402.332C45.1081 402.052 45.2641 401.664 45.2641 401.168C45.2641 400.68 45.1081 400.3 44.7961 400.028C44.4841 399.748 44.1001 399.608 43.6441 399.608C43.1881 399.608 42.8041 399.748 42.4921 400.028C42.1801 400.3 42.0241 400.68 42.0241 401.168C42.0241 401.664 42.1801 402.052 42.4921 402.332C42.8041 402.604 43.1881 402.74 43.6441 402.74Z" fill="#606160"/>
<path d="M27.74 359C27.66 359 27.592 358.972 27.536 358.916C27.48 358.86 27.452 358.792 27.452 358.712V357.176H23.648C23.568 357.176 23.5 357.148 23.444 357.092C23.388 357.036 23.36 356.968 23.36 356.888V356.072C23.36 355.944 23.404 355.824 23.492 355.712L27.032 350.804C27.072 350.74 27.132 350.692 27.212 350.66C27.292 350.62 27.38 350.6 27.476 350.6H28.784C28.872 350.6 28.94 350.628 28.988 350.684C29.044 350.732 29.072 350.8 29.072 350.888V355.76H30.14C30.228 355.76 30.3 355.788 30.356 355.844C30.412 355.892 30.44 355.96 30.44 356.048V356.888C30.44 356.968 30.412 357.036 30.356 357.092C30.3 357.148 30.232 357.176 30.152 357.176H29.072V358.712C29.072 358.792 29.044 358.86 28.988 358.916C28.94 358.972 28.872 359 28.784 359H27.74ZM27.488 355.808V352.34L25.028 355.808H27.488ZM33.3103 359C33.2383 359 33.1783 358.976 33.1303 358.928C33.0823 358.872 33.0583 358.808 33.0583 358.736C33.0583 358.712 33.0663 358.676 33.0823 358.628L35.9743 352.028H32.2063C32.1263 352.028 32.0583 352 32.0023 351.944C31.9463 351.888 31.9183 351.82 31.9183 351.74V350.9C31.9183 350.812 31.9423 350.74 31.9903 350.684C32.0463 350.628 32.1183 350.6 32.2063 350.6H37.4743C37.5623 350.6 37.6303 350.628 37.6783 350.684C37.7343 350.74 37.7623 350.812 37.7623 350.9V351.644C37.7623 351.804 37.7263 351.976 37.6543 352.16L34.7863 358.712C34.6983 358.904 34.5703 359 34.4023 359H33.3103Z" fill="#606160"/>
<path d="M27.74 315C27.66 315 27.592 314.972 27.536 314.916C27.48 314.86 27.452 314.792 27.452 314.712V313.176H23.648C23.568 313.176 23.5 313.148 23.444 313.092C23.388 313.036 23.36 312.968 23.36 312.888V312.072C23.36 311.944 23.404 311.824 23.492 311.712L27.032 306.804C27.072 306.74 27.132 306.692 27.212 306.66C27.292 306.62 27.38 306.6 27.476 306.6H28.784C28.872 306.6 28.94 306.628 28.988 306.684C29.044 306.732 29.072 306.8 29.072 306.888V311.76H30.14C30.228 311.76 30.3 311.788 30.356 311.844C30.412 311.892 30.44 311.96 30.44 312.048V312.888C30.44 312.968 30.412 313.036 30.356 313.092C30.3 313.148 30.232 313.176 30.152 313.176H29.072V314.712C29.072 314.792 29.044 314.86 28.988 314.916C28.94 314.972 28.872 315 28.784 315H27.74ZM27.488 311.808V308.34L25.028 311.808H27.488ZM35.7641 315.12C35.0681 315.12 34.4681 315.012 33.9641 314.796C33.4681 314.572 33.0881 314.264 32.8241 313.872C32.5601 313.48 32.4281 313.032 32.4281 312.528C32.4281 312.08 32.5401 311.684 32.7641 311.34C32.9881 310.988 33.2881 310.72 33.6641 310.536C33.3681 310.352 33.1361 310.116 32.9681 309.828C32.8081 309.532 32.7281 309.196 32.7281 308.82C32.7281 308.116 32.9921 307.552 33.5201 307.128C34.0561 306.696 34.8041 306.48 35.7641 306.48C36.7161 306.48 37.4561 306.692 37.9841 307.116C38.5121 307.54 38.7761 308.104 38.7761 308.808C38.7761 309.184 38.6961 309.52 38.5361 309.816C38.3841 310.104 38.1601 310.344 37.8641 310.536C38.2481 310.72 38.5481 310.988 38.7641 311.34C38.9881 311.684 39.1001 312.084 39.1001 312.54C39.1001 313.044 38.9681 313.492 38.7041 313.884C38.4401 314.276 38.0561 314.58 37.5521 314.796C37.0481 315.012 36.4521 315.12 35.7641 315.12ZM35.7641 310.02C36.1801 310.012 36.5241 309.904 36.7961 309.696C37.0761 309.488 37.2161 309.216 37.2161 308.88C37.2161 308.528 37.0801 308.248 36.8081 308.04C36.5361 307.832 36.1881 307.728 35.7641 307.728C35.3401 307.728 34.9921 307.832 34.7201 308.04C34.4481 308.248 34.3121 308.528 34.3121 308.88C34.3121 309.224 34.4481 309.5 34.7201 309.708C34.9921 309.916 35.3401 310.02 35.7641 310.02ZM35.7641 313.872C36.2361 313.872 36.6321 313.752 36.9521 313.512C37.2721 313.264 37.4321 312.94 37.4321 312.54C37.4321 312.14 37.2721 311.82 36.9521 311.58C36.6321 311.332 36.2361 311.208 35.7641 311.208C35.2841 311.208 34.8841 311.328 34.5641 311.568C34.2521 311.808 34.0961 312.132 34.0961 312.54C34.0961 312.948 34.2521 313.272 34.5641 313.512C34.8841 313.752 35.2841 313.872 35.7641 313.872Z" fill="#606160"/>
<path d="M163.707 85.8632C163.317 85.4727 162.683 85.4727 162.293 85.8632C161.902 86.2537 161.902 86.8869 162.293 87.2774L163.707 85.8632ZM165 88.5703L164.293 89.2774C164.683 89.6679 165.317 89.6679 165.707 89.2774L165 88.5703ZM169.707 85.2774C170.098 84.8869 170.098 84.2537 169.707 83.8632C169.317 83.4727 168.683 83.4727 168.293 83.8632L169.707 85.2774ZM162.293 87.2774L164.293 89.2774L165.707 87.8632L163.707 85.8632L162.293 87.2774ZM165.707 89.2774L169.707 85.2774L168.293 83.8632L164.293 87.8632L165.707 89.2774Z" fill="white"/>
</svg>