<svg width="108" height="32" viewBox="0 0 108 32" fill="none" xmlns="http://www.w3.org/2000/svg">
<path d="M50.9337 22.4062C50.7362 22.2191 50.386 21.515 49.7037 19.9198C49.1829 18.6988 48.752 17.6205 48.752 17.5403C48.752 16.8808 49.5869 16.5065 50.0359 16.961C50.1526 17.068 50.5027 17.772 50.817 18.5117C51.1312 19.2603 51.4185 19.8485 51.4545 19.8039C51.4904 19.7683 52.3972 17.7007 53.4746 15.1965C54.552 12.7011 55.5307 10.5623 55.6384 10.4464C55.9257 10.1612 56.3297 10.188 56.6709 10.5177C56.8954 10.7494 56.9313 10.8385 56.8864 11.0702C56.8415 11.3198 55.6833 14.029 53.0257 20.1337C52.5049 21.3368 52.0201 22.3706 51.9573 22.4329C51.8944 22.5042 51.6969 22.5755 51.5173 22.6023C51.2569 22.6468 51.1582 22.6112 50.9337 22.4062Z" fill="#6B6B6B"/>
<path d="M65.4066 22.5853C65.3078 22.5675 65.0026 22.5051 64.7332 22.4516C64.4638 22.3982 63.8803 22.1843 63.4313 21.9704C61.9768 21.2842 60.8007 19.9652 60.2799 18.4324C60.0375 17.755 60.0195 17.5946 60.0195 16.4004C60.0195 15.2241 60.0465 15.0458 60.2619 14.4576C60.9353 12.604 62.3898 11.187 64.2394 10.5542C64.8858 10.3314 65.0834 10.3047 66.1249 10.3047C67.1484 10.3136 67.3818 10.3403 68.0193 10.5453C69.8599 11.1513 71.5029 12.8178 72.0416 14.6181C72.733 16.9084 72.0237 19.4216 70.237 21.0257C69.1775 21.9793 67.8218 22.5318 66.3942 22.5942C65.9543 22.612 65.5053 22.612 65.4066 22.5853ZM67.292 20.901C68.1181 20.6871 68.8094 20.2682 69.4379 19.6087C70.0574 18.9582 70.3986 18.3521 70.6141 17.5144C71.1169 15.5538 70.1382 13.3615 68.3246 12.399C67.5794 11.998 66.9868 11.8554 66.1249 11.8554C64.7871 11.8554 63.7815 12.2653 62.8567 13.1832C61.4471 14.5824 61.1239 16.6678 62.0127 18.5215C62.318 19.1453 63.3415 20.1791 63.979 20.5267C64.9307 21.0257 66.2326 21.1683 67.292 20.901Z" fill="#6B6B6B"/>
<path d="M75.2469 22.4081C74.762 22.007 74.8249 21.7931 76.0729 19.8592C76.6744 18.9235 77.4107 17.7649 77.7159 17.3015L78.2546 16.446L77.6621 15.5102C77.3298 14.9933 76.5936 13.8437 76.019 12.9436C74.9057 11.2236 74.7979 10.9295 75.1301 10.5285C75.2109 10.4215 75.4264 10.3146 75.606 10.2878C76.0818 10.2076 76.2884 10.4393 77.7518 12.7475C78.4611 13.8526 79.0806 14.8062 79.1345 14.8597C79.2063 14.9488 79.5745 14.4408 80.6698 12.7386C81.4599 11.5088 82.1872 10.4393 82.2859 10.377C82.5822 10.172 82.9503 10.2255 83.2466 10.5196C83.6237 10.9028 83.5609 11.1077 82.6271 12.5604C81.7472 13.9328 80.4903 15.9024 80.2927 16.2054C80.167 16.4014 80.2389 16.5351 81.8011 18.9681C82.7079 20.3761 83.4621 21.6238 83.4711 21.7486C83.516 22.0516 83.2107 22.515 82.9054 22.5863C82.3847 22.72 82.241 22.5596 80.7147 20.1801C79.9156 18.9324 79.2333 17.9164 79.1974 17.9164C79.1704 17.9254 78.515 18.9057 77.7518 20.1088C76.9887 21.3119 76.2614 22.3724 76.1447 22.4704C75.8574 22.7021 75.5701 22.6843 75.2469 22.4081Z" fill="#6B6B6B"/>
<path d="M88.2566 22.5217C87.7987 22.29 87.8077 22.3702 87.8347 16.3279L87.8526 10.6778L88.104 10.4639L88.3554 10.25H91.3183C94.4248 10.25 94.7031 10.2856 94.8468 10.651C94.9276 10.8738 94.9096 11.2214 94.8109 11.4175C94.5864 11.8185 94.335 11.8541 91.8031 11.8541H89.4238V13.7167V15.5882L91.5876 15.615L93.7514 15.6417L93.9759 15.9002C94.2632 16.2299 94.2093 16.7022 93.8681 17.0052C93.6437 17.1924 93.5808 17.2013 91.5248 17.2013H89.4238V19.1174V21.0334H91.8839H94.344L94.6223 21.2651C94.9994 21.577 95.0084 22.0137 94.6403 22.3791L94.3799 22.6376H91.426C89.2443 22.6376 88.4272 22.6019 88.2566 22.5217Z" fill="#6B6B6B"/>
<path d="M99.5251 22.5306C99.1211 22.2989 99.1301 22.4326 99.1211 16.4705C99.1211 13.3513 99.148 10.7312 99.175 10.651C99.2468 10.4817 99.6688 10.25 99.9292 10.25C100.037 10.25 100.243 10.3659 100.387 10.5084L100.647 10.7669V15.9002V21.0334H103.072C105.72 21.0334 105.9 21.0602 106.106 21.5325C106.196 21.7107 106.196 21.8444 106.124 22.0672C105.936 22.6197 105.837 22.6376 102.605 22.6376C100.594 22.6287 99.6508 22.6019 99.5251 22.5306Z" fill="#6B6B6B"/>
<path d="M48.0697 15.9994C47.8363 15.839 45.9688 11.3652 45.9688 10.9731C45.9688 10.2691 47.0641 10.0106 47.3963 10.6345C47.7016 11.2226 49.2908 15.2152 49.2908 15.3934C49.2908 15.5182 49.174 15.7321 49.0304 15.8747C48.7341 16.1599 48.366 16.2133 48.0697 15.9994Z" fill="#6B6B6B"/>
<path d="M19.106 30.9406C19.0252 30.9049 15.4787 28.57 11.2319 25.7538C6.47332 22.599 3.47453 20.5493 3.42066 20.4245C3.36679 20.3087 3.16028 17.8222 2.96276 14.8991C2.76523 11.976 2.50486 8.16171 2.37916 6.42389C2.09185 2.38679 2.09185 2.5472 2.41507 2.21746C2.58566 2.05705 2.77421 1.95901 2.93582 1.95901C3.25905 1.95901 12.1028 6.76254 12.2913 7.03881C12.3901 7.19031 12.435 8.02803 12.5158 11.0759C12.5787 13.5891 12.6505 14.9882 12.7223 15.0952C12.7762 15.1932 14.2307 16.227 15.9456 17.3855C18.3697 19.0253 19.1419 19.5066 19.3574 19.5155C19.5728 19.5155 20.1475 19.1858 21.7815 18.1163C22.9667 17.3499 24.4391 16.3963 25.0676 15.9864C25.6961 15.5853 26.2528 15.1576 26.3156 15.0417C26.4054 14.8902 26.4503 13.8297 26.5042 10.969C26.5581 7.84088 26.594 7.07446 26.7017 6.91404C26.7646 6.8071 27.9138 6.12088 29.2336 5.3901C30.5624 4.65933 32.5108 3.5899 33.5702 3.01062C34.6297 2.42243 35.6083 1.92337 35.734 1.89663C36.0662 1.83425 36.5061 2.07487 36.6049 2.37788C36.6678 2.5472 36.6408 3.40275 36.5331 4.98907C36.4433 6.29021 36.1919 10.158 35.9585 13.5891C35.734 17.0202 35.5095 19.97 35.4647 20.1482C35.3659 20.4958 35.6532 20.2908 29.0002 24.729C26.4683 26.4133 23.5593 28.3561 20.5874 30.3524C19.7524 30.9049 19.3933 31.0564 19.106 30.9406ZM18.9264 28.0085L18.8995 27.3134L18.3697 28.1601C18.0734 28.6235 17.8221 29.0691 17.8041 29.1493C17.7772 29.2384 17.9477 29.4077 18.3338 29.6573L18.8995 30.0316L18.9264 29.3632C18.9444 28.9978 18.9444 28.3828 18.9264 28.0085ZM16.4932 27.6788C15.6582 26.3153 15.8827 26.4401 14.1409 26.3331L13.2431 26.2707L15.1734 27.5719C16.2329 28.2759 17.1307 28.8641 17.1666 28.8641C17.1936 28.873 16.8973 28.3383 16.4932 27.6788ZM18.1543 27.8303C18.4326 27.3491 18.657 26.9569 18.6481 26.9391C18.5942 26.8946 16.4124 26.547 16.3316 26.5737C16.2418 26.6005 17.4809 28.6948 17.5886 28.6948C17.6245 28.6948 17.8759 28.3026 18.1543 27.8303ZM18.5224 26.2262C18.0914 25.1835 17.409 23.8556 17.3372 23.9358C17.2115 24.0606 16.1341 26.1192 16.17 26.146C16.2059 26.1727 18.3159 26.5292 18.5583 26.547C18.6391 26.5559 18.6301 26.4579 18.5224 26.2262ZM15.4338 25.5132C15.335 25.1746 15.1734 24.5953 15.0657 24.221C14.9579 23.8378 14.8502 23.5259 14.8233 23.5259C14.7604 23.5259 13.261 25.8519 13.3059 25.8875C13.3239 25.9142 14.7873 26.0568 15.4158 26.1014L15.6134 26.1103L15.4338 25.5132ZM18.9084 23.1961C18.8725 23.1605 17.7592 23.4278 17.6964 23.4813C17.6784 23.4991 17.9477 24.1051 18.2799 24.827L18.8995 26.1281L18.9264 24.6844C18.9354 23.8823 18.9354 23.2139 18.9084 23.1961ZM16.9691 23.5259C16.8434 23.4456 15.2632 23.2228 15.2093 23.2763C15.1824 23.312 15.6852 25.1835 15.8558 25.6647C15.8827 25.7449 16.1431 25.3439 16.4932 24.6933C16.9152 23.9002 17.0499 23.5793 16.9691 23.5259ZM11.3127 24.2655C10.7201 23.4902 10.1455 22.7505 10.0378 22.6079C9.84023 22.3762 9.75045 22.3584 8.4396 22.1891C7.67643 22.091 6.98509 22.0108 6.91326 22.0108C6.78757 22.0108 12.1836 25.6469 12.3273 25.6558C12.3632 25.6647 11.9142 25.032 11.3127 24.2655ZM14.2037 23.7665C14.4462 23.3744 14.6347 23.0535 14.6168 23.0357C14.1678 22.6792 12.3362 21.4939 12.3183 21.5563C12.3093 21.592 12.453 22.4921 12.6595 23.5526C12.857 24.6042 13.0186 25.4954 13.0186 25.5399C13.0186 25.6023 13.4136 25.0052 14.2037 23.7665ZM12.2824 23.5526C12.1028 22.5812 11.9412 21.6989 11.9412 21.592C11.9412 21.4761 11.8963 21.387 11.8514 21.387C11.7616 21.387 10.6932 21.9484 10.334 22.1802C10.2353 22.2425 10.4777 22.599 11.3935 23.7843C12.0489 24.622 12.5876 25.3082 12.6056 25.3082C12.6146 25.3082 12.4709 24.5151 12.2824 23.5526ZM17.1487 23.0981C17.1487 23.0535 16.9871 22.2782 16.7895 21.3781C16.592 20.478 16.4035 19.6224 16.3765 19.4888C16.3496 19.3462 16.3137 19.2481 16.2957 19.266C16.2508 19.3105 15.1734 22.697 15.1734 22.7951C15.1734 22.8396 15.5505 22.9377 16.0084 23.0179C17.0409 23.1783 17.1487 23.1872 17.1487 23.0981ZM18.2081 22.9822C18.4146 22.9198 18.5852 22.8396 18.5852 22.7862C18.5852 22.6881 16.8614 19.6759 16.8254 19.7116C16.8165 19.7294 16.9691 20.5136 17.1666 21.4583C17.4719 22.8753 17.5617 23.1605 17.6784 23.1337C17.7592 23.107 17.9926 23.0446 18.2081 22.9822ZM14.6347 22.394C14.6347 22.3049 14.5539 21.6098 14.4551 20.8523C14.3564 20.0948 14.2756 19.4175 14.2756 19.3551C14.2756 19.2125 13.9075 19.4977 12.9378 20.3889L12.2734 21.0038L13.3867 21.7702C13.9972 22.1891 14.527 22.5366 14.5719 22.5455C14.6078 22.5455 14.6347 22.4742 14.6347 22.394ZM18.9444 21.3246V20.1839L17.8939 19.4977C17.3193 19.1145 16.8344 18.8204 16.8254 18.8293C16.7806 18.8738 18.8456 22.4564 18.9084 22.4564C18.9264 22.4564 18.9444 21.9484 18.9444 21.3246ZM9.69658 21.8148C9.70555 21.289 9.39131 18.6421 9.32846 18.6778C9.16685 18.7758 6.98509 21.5831 7.02998 21.6276C7.07488 21.6633 8.96932 21.9395 9.58884 22.0019C9.64271 22.0019 9.69658 21.9217 9.69658 21.8148ZM10.9356 21.4316C11.3486 21.1998 11.6718 20.977 11.6539 20.9414C11.6 20.8077 9.84921 18.8025 9.8133 18.8382C9.75943 18.8917 10.0826 21.9128 10.1365 21.8861C10.1635 21.8682 10.5226 21.6633 10.9356 21.4316ZM15.5236 20.4067C15.7929 19.569 15.9905 18.8649 15.9545 18.8382C15.8558 18.7312 14.7155 18.9095 14.6616 19.0432C14.5988 19.1947 14.913 21.9217 14.9849 21.9217C15.0118 21.9217 15.2542 21.2355 15.5236 20.4067ZM5.27021 20.1215C4.71355 19.2749 4.18382 18.4639 4.09404 18.3302C4.00425 18.1965 3.90549 18.0985 3.88754 18.1252C3.8606 18.1431 3.86958 18.6065 3.90549 19.1501L3.97732 20.1304L5.1086 20.8879C5.72811 21.3068 6.24886 21.6544 6.25784 21.6544C6.2758 21.6544 5.82687 20.9592 5.27021 20.1215ZM7.9368 19.8274L9.14889 18.3124L8.36777 18.2411C6.30273 18.0628 4.35441 17.9292 4.3185 17.9648C4.30054 17.9826 4.80333 18.7758 5.4408 19.7294C6.07827 20.683 6.62595 21.4405 6.66187 21.4048C6.69778 21.3692 7.2724 20.6651 7.9368 19.8274ZM12.9827 19.8987C13.4944 19.4264 13.8985 19.0253 13.8715 18.9986C13.8446 18.9719 12.9557 18.8204 11.9053 18.6689L9.97491 18.3837L10.1724 18.6332C10.5675 19.1234 11.9861 20.7632 12.013 20.7632C12.031 20.7632 12.4709 20.3799 12.9827 19.8987ZM13.8267 18.2946C13.3149 17.439 12.1656 15.6834 12.1028 15.6834C12.004 15.6834 9.96593 17.9381 10.0198 17.9916C10.0557 18.0361 13.4226 18.5708 13.8985 18.6154C13.9883 18.6243 13.9703 18.5263 13.8267 18.2946ZM15.353 18.4639L16.1072 18.3035L15.2632 17.7242C13.8267 16.735 13.0186 16.2092 13.0186 16.2626C13.0186 16.3607 14.4731 18.6243 14.527 18.6243C14.5629 18.6154 14.931 18.5441 15.353 18.4639ZM8.55632 16.7706C8.22411 16.1379 7.88293 15.5408 7.81111 15.4338C7.67643 15.2467 7.6495 15.2645 6.08725 16.3785C5.20736 17.0023 4.48909 17.537 4.48909 17.5638C4.48909 17.5905 5.27021 17.6707 6.22193 17.7242C7.16466 17.7866 7.99068 17.849 8.03557 17.8668C8.08944 17.8846 8.35879 17.9024 8.6461 17.9024L9.16685 17.9113L8.55632 16.7706ZM10.7919 16.5033C11.2947 15.9507 11.6808 15.4873 11.6629 15.4695C11.6269 15.4427 8.14331 15.1665 8.11637 15.1843C8.1074 15.1932 8.43062 15.7903 8.82567 16.5122C9.66066 18.045 9.41824 18.045 10.7919 16.5033ZM5.01882 14.4535C5.62037 12.9296 6.10521 11.6284 6.08725 11.5839C6.06929 11.5304 5.44978 11.1116 4.71355 10.6481L3.36679 9.81041L3.33985 10.0599C3.32189 10.1936 3.41168 11.8156 3.53738 13.6515C3.67205 15.4962 3.77082 17.1004 3.77082 17.2073C3.77082 17.3232 3.80673 17.3766 3.84264 17.3321C3.88754 17.2786 4.41726 15.9864 5.01882 14.4535ZM5.97053 16.0488C6.76063 15.4873 7.44299 14.9971 7.48788 14.9615C7.55971 14.8991 6.47332 12.0384 6.37456 12.0295C6.33864 12.0295 6.26682 12.181 6.20397 12.3681C6.13214 12.5464 5.70118 13.6604 5.22532 14.8367C4.75844 16.0131 4.35441 17.0291 4.32748 17.1004C4.26463 17.2697 4.24667 17.2786 5.97053 16.0488ZM11.3127 13.1702C11.0074 12.1721 10.7291 11.3344 10.6932 11.2987C10.6662 11.2631 10.0826 12.0206 9.40029 12.9831C8.71793 13.9455 8.1882 14.7565 8.22411 14.7833C8.30492 14.8635 11.8065 15.113 11.8334 15.0417C11.8514 15.0061 11.618 14.1594 11.3127 13.1702ZM9.14889 12.7335C9.78636 11.8334 10.2712 11.0848 10.2263 11.067C10.1545 11.0403 6.71574 11.575 6.66187 11.6284C6.63493 11.6463 7.68541 14.3109 7.78417 14.4624C7.856 14.5783 7.88293 14.5337 9.14889 12.7335ZM11.8514 11.0135C11.8065 9.50741 11.7616 8.25083 11.7347 8.233C11.7167 8.21518 11.5282 8.77663 11.3217 9.48067L10.9446 10.764L11.4115 12.2879C11.6718 13.1256 11.8963 13.803 11.9053 13.7851C11.9232 13.7673 11.8963 12.5196 11.8514 11.0135ZM10.2083 10.6749C10.3161 10.657 7.71234 8.28648 6.76063 7.54679L6.55413 7.38637V9.33808V11.2898L8.3139 10.9957C9.28357 10.8353 10.1365 10.6927 10.2083 10.6749ZM6.15908 7.3329C6.14112 7.30617 5.82687 7.53788 5.45876 7.84979C5.09962 8.1528 4.50705 8.64295 4.14791 8.93705C3.78877 9.23114 3.51044 9.48067 3.51942 9.48958C3.53738 9.4985 4.12995 9.8728 4.84823 10.3273L6.1501 11.1383L6.17703 9.24896C6.18601 8.21518 6.17703 7.35072 6.15908 7.3329ZM9.75045 8.17062C9.4362 7.14575 9.15787 6.29912 9.13991 6.28129C9.104 6.24565 6.83246 6.91404 6.76063 6.98534C6.74267 7.00316 7.5238 7.72503 8.50245 8.58057C9.48109 9.43611 10.2892 10.1134 10.2981 10.0867C10.3161 10.051 10.0647 9.18658 9.75045 8.17062ZM11.187 8.69642C11.4025 7.97456 11.5641 7.35072 11.5372 7.30617C11.5102 7.26161 11.0433 6.98534 10.4957 6.69124C9.77738 6.30803 9.50803 6.20109 9.54394 6.30803C9.75943 7.08337 10.7201 10.0599 10.7471 10.0332C10.765 10.0154 10.9625 9.41829 11.187 8.69642ZM5.95257 6.86057C5.91666 6.82492 5.22532 6.30803 4.42624 5.71093L2.96276 4.63259V4.96233C2.96276 5.14948 3.02561 6.10306 3.09743 7.08337C3.16926 8.06368 3.23211 8.95487 3.23211 9.07072C3.23211 9.23114 3.46555 9.07072 4.63274 8.09933C5.39591 7.44876 5.98849 6.89622 5.95257 6.86057ZM7.82906 6.28129C8.45755 6.09414 8.95137 5.91591 8.93341 5.88026C8.90647 5.84461 8.08944 5.38119 7.11977 4.85539C6.14112 4.32958 5.3151 3.87508 5.27919 3.85725C5.24328 3.83943 5.4408 4.35632 5.71016 5.00689C5.98849 5.65746 6.25784 6.30803 6.30273 6.44171C6.36558 6.61104 6.44639 6.68233 6.54515 6.6556C6.62595 6.63777 7.20057 6.46844 7.82906 6.28129ZM5.32408 4.99798C5.03677 4.31176 4.75844 3.7414 4.71355 3.7414C4.65968 3.7414 4.30054 3.8929 3.92345 4.08005L3.22313 4.40979L4.50705 5.35446C5.21634 5.88026 5.79994 6.29021 5.8179 6.28129C5.82687 6.27238 5.61139 5.69311 5.32408 4.99798ZM3.80673 3.75922L4.50705 3.42948L3.72592 2.9928C3.25905 2.74326 2.90889 2.60067 2.86399 2.64523C2.74728 2.76109 2.87297 4.09788 2.99867 4.08896C3.05254 4.08896 3.41168 3.93746 3.80673 3.75922Z" fill="#EA5A43"/>
<path d="M17.9574 10.5317C17.3378 10.202 16.009 9.48903 15.0035 8.95431C13.9979 8.4196 13.1 7.92053 13.0102 7.84032C12.7499 7.62644 12.714 7.28778 12.9205 7.02934C13.0372 6.87784 14.1864 6.28074 16.1796 5.31825C17.8765 4.50726 19.367 3.82105 19.4927 3.7854C19.6722 3.74084 20.3546 4.04384 22.7788 5.24695C24.6463 6.16488 25.8943 6.84219 25.9841 6.96695C26.3163 7.43929 26.0649 7.7512 24.781 8.40177C24.2602 8.66913 22.8865 9.38208 21.7283 9.97918C20.5701 10.5763 19.5016 11.0843 19.349 11.1021C19.1425 11.1377 18.8283 11.0041 17.9574 10.5317Z" fill="#EA5A43"/>
<path d="M38.446 5.55237C38.006 5.33848 37.7726 4.94636 37.7277 4.376C37.7007 3.96605 37.7277 3.82346 37.9072 3.57392C38.3831 2.87879 39.0924 2.68273 39.8107 3.02139C41.1754 3.68087 40.6547 5.71278 39.1283 5.70387C38.9128 5.70387 38.6076 5.63258 38.446 5.55237ZM39.7837 5.23154C39.9902 5.09786 40.1249 4.9018 40.2147 4.65227C40.3225 4.31361 40.3135 4.22449 40.1788 3.86802C39.9992 3.39569 39.7389 3.19962 39.2091 3.14615C38.2574 3.04812 37.6738 4.12646 38.2215 4.96418C38.5447 5.45434 39.263 5.5791 39.7837 5.23154Z" fill="#EA5A43"/>
<path d="M38.6074 4.27545V3.5625H39.0204C39.2449 3.5625 39.5053 3.60706 39.604 3.65162C39.8105 3.76747 39.8285 4.03483 39.6399 4.18633C39.5232 4.28437 39.5232 4.32001 39.6399 4.48043C39.7118 4.58737 39.7746 4.73887 39.7746 4.82799C39.7746 5.08644 39.5053 5.00623 39.4065 4.72105C39.3347 4.52499 39.2539 4.45369 39.0923 4.45369C38.9127 4.45369 38.8768 4.49825 38.8768 4.72105C38.8768 4.89929 38.8319 4.98841 38.7421 4.98841C38.6344 4.98841 38.6074 4.84582 38.6074 4.27545ZM39.3347 4.18633C39.4783 4.18633 39.4244 3.84768 39.2718 3.79421C39.0025 3.68727 38.8768 3.74074 38.8768 3.94571C38.8768 4.20416 38.9576 4.29328 39.1282 4.23089C39.191 4.20416 39.2898 4.18633 39.3347 4.18633Z" fill="#EA5A43"/>
</svg>
