<svg width="151" height="40" viewBox="0 0 151 40" fill="none" xmlns="http://www.w3.org/2000/svg">
<g clip-path="url(#clip0)">
<path fill-rule="evenodd" clip-rule="evenodd" d="M21.086 35.4766C21.0913 35.4702 21.0998 35.4673 21.1045 35.46L22.5326 33.1217L22.5417 36.4417L21.086 35.4766ZM19.2507 32.1788L22.2469 32.6476L20.9095 34.8708L19.2507 32.1788ZM15.6366 31.8654L18.6493 32.0953L20.4684 35.0677L15.6366 31.8654ZM14.4174 25.9483L17.3007 27.9246L15.3553 30.9622L14.4174 25.9483ZM11.9192 26.9478L13.9131 25.8101L14.8249 30.7028L11.9192 26.9478ZM7.74319 26.6344L11.4467 27.0927L14.6148 31.1883L7.74319 26.6344ZM4.63161 21.6751L10.5685 22.1092L7.88765 25.4602L7.48046 25.9687L4.63161 21.6751ZM4.36976 24.3987C4.31975 24.3654 4.28709 24.3099 4.28327 24.2497L4.11145 21.725L7.07298 26.1901L4.36976 24.3987ZM3.4274 11.6738L6.91146 13.8611L4.06555 21.0535L3.4274 11.6738ZM3.00021 5.39626L6.76082 8.18379L3.3821 11.007L3.00021 5.39626ZM2.84693 3.14327C2.84457 3.10676 2.84693 3.05214 2.89547 3.00014C2.93431 2.95925 2.99109 2.93354 3.04375 2.93354C3.07612 2.93354 3.1076 2.94289 3.14025 2.96159L4.88199 3.91238L2.95873 4.78547L2.84693 3.14327ZM6.59342 7.48858L3.37915 5.10678L5.22886 4.26757L6.59342 7.48858ZM6.96177 13.3505L3.73456 11.3256L6.90793 8.6751L6.96177 13.3505ZM10.4276 6.94031L7.26863 7.89344L5.79228 4.40953L10.4276 6.94031ZM12.0802 12.1827L7.60374 8.2793L10.5788 7.38226L12.0802 12.1827ZM13.5739 8.65787L12.5415 12.0933L11.0325 7.27038L13.5739 8.65787ZM14.4883 16.6524L12.7978 12.8919L13.7881 9.63349L14.4883 16.6524ZM14.7484 18.8598L16.5398 22.4737L11.5703 21.754L14.7484 18.8598ZM19.0948 22.1068L17.1103 22.474L15.731 19.4782L19.0948 22.1068ZM20.3752 28.035L17.9344 27.6763L19.3478 23.265L20.3752 28.035ZM22.5091 24.33L22.517 27.2455L19.8759 22.6355C19.8759 22.6355 22.3452 24.2754 22.5091 24.33ZM19.9362 23.6915L22.2075 27.6422L20.8589 28.0207L19.9362 23.6915ZM20.6691 28.8453L22.2211 32.1683L19.1592 31.6901L20.6691 28.8453ZM17.9509 28.1487L20.3084 28.496L18.852 31.2423L17.9509 28.1487ZM17.5446 28.4343L18.4701 31.613L15.6463 31.3983L17.5446 28.4343ZM17.2621 22.9577L19 22.6989L17.717 26.6814L17.2621 22.9577ZM16.8237 23.2618L17.3266 27.3819L14.4603 25.4184L16.8237 23.2618ZM13.7204 25.3731L11.7648 26.4892L11.3467 22.6268L13.7204 25.3731ZM11.6138 22.2295L16.4745 22.9338L14.0979 25.1029L11.6138 22.2295ZM11.0916 21.5185L9.33488 18.2961L14.245 18.6451L11.0916 21.5185ZM10.861 22.507L11.3043 26.6072L7.91472 26.1884L10.861 22.507ZM8.85061 18.377L10.6265 21.6479L4.84462 21.2267L8.85061 18.377ZM8.64113 17.9455L4.6931 20.7544L7.20626 14.4026L8.64113 17.9455ZM7.4331 13.498L7.3772 8.69146L12.0252 12.7458L7.4331 13.498ZM12.4688 13.4223L14.4489 18.1918L9.36724 17.831L12.4688 13.4223ZM8.983 17.5515L7.52577 13.9546L12.0319 13.2173L8.983 17.5515ZM22.5288 31.6676L21.026 28.4741L22.5191 28.0575L22.5288 31.6676ZM42.7152 2.14195L32.3846 7.81953C32.0869 7.99158 31.8941 8.29858 31.8691 8.63976L31.4593 17.6803C31.4361 18.0019 31.2631 18.2943 30.9915 18.4713L23.665 23.4122C23.4014 23.584 23.079 23.6249 22.7874 23.5358C22.6941 23.506 22.6032 23.4648 22.5194 23.4081L15.5554 18.5169C15.2953 18.3408 15.1294 18.0577 15.1038 17.746L14.6116 8.79457C14.5836 8.45602 14.3903 8.15253 14.094 7.98253L3.56363 2.23338C3.39504 2.13669 3.21704 2.09258 3.04375 2.09258C2.47534 2.09258 1.95929 2.56637 2.00254 3.19994L3.43859 24.3066C3.46036 24.6274 3.631 24.9198 3.9002 25.0982L22.5447 37.4542V37.4544H22.545L22.557 37.4626C22.7324 37.5786 22.9339 37.6367 23.1355 37.6367C23.3385 37.6367 23.5412 37.5777 23.7168 37.4606V37.4436L42.396 24.9691C42.6638 24.7904 42.8329 24.4988 42.8544 24.1793L44.2793 3.10617C44.3349 2.27836 43.4369 1.72453 42.7152 2.14195Z" fill="#EA5A43"/>
<path fill-rule="evenodd" clip-rule="evenodd" d="M24.3564 4.71365L30.7316 8.20018C31.3745 8.55158 31.368 9.12118 30.7181 9.47258L24.266 12.9591C23.6158 13.3105 22.5681 13.3105 21.9256 12.9591L15.55 9.47258C14.9075 9.12118 14.9139 8.55158 15.5641 8.20018L22.0156 4.71365C22.6658 4.36225 23.7138 4.36225 24.3564 4.71365Z" fill="#EA5A43"/>
<path d="M148.725 25.6448V25.6109C148.708 24.6762 148.691 23.4695 148.691 22.2964C148.691 20.8689 148.708 18.9282 148.725 18.2315V18.1973C148.725 17.6537 148.263 17.3818 147.818 17.3818C147.304 17.3818 146.877 17.6876 146.893 18.2484C146.91 18.7073 146.91 18.7894 146.91 19.5541C146.91 21.1005 146.893 24.2342 146.893 25.6448C146.893 26.2228 147.338 26.5117 147.8 26.5117C148.263 26.5117 148.725 26.2228 148.725 25.6448Z" fill="#6B6B6B"/>
<path d="M147.802 15.4375C148.538 15.4375 149 14.8425 149 14.2308C149 13.585 148.418 13.075 147.802 13.075C147.322 13.075 146.604 13.398 146.604 14.2308C146.604 15.0125 147.134 15.4375 147.802 15.4375Z" fill="#6B6B6B"/>
<path d="M127.692 18.955C128.637 18.4281 129.221 17.4469 129.221 16.3191C129.221 14.4222 127.772 13.0978 125.695 13.0978C123.431 13.0978 122.187 14.6407 122.187 15.1519C122.187 15.5512 122.554 15.9154 122.957 15.9154C123.212 15.9154 123.41 15.8114 123.544 15.6122C124.069 14.8767 124.786 14.5037 125.678 14.5037C127.584 14.5037 127.681 16.001 127.681 16.3016C127.681 17.482 126.909 18.2964 125.766 18.3259H125.133C124.728 18.3259 124.435 18.6326 124.435 19.0555C124.435 19.4154 124.664 19.8024 125.168 19.8024H125.625C127.333 19.8024 128.313 20.7374 128.313 22.3668C128.313 23.8781 127.135 25.0182 125.573 25.0182C124.31 25.0182 123.452 24.571 122.798 23.577C122.666 23.3558 122.429 23.2238 122.167 23.2238C121.778 23.2238 121.363 23.5443 121.363 24.0224C121.363 24.6022 122.648 26.5117 125.485 26.5117C128.046 26.5117 129.905 24.7755 129.905 22.3843C129.905 20.7681 129.089 19.5229 127.692 18.955Z" fill="#EA5A43"/>
<path d="M143.465 19.758C143.465 16.1561 141.25 13.3683 137.221 13.1083C136.96 13.0911 136.436 13.0736 135.895 13.0736C133.733 13.0736 132.006 13.1431 131.867 15.5152C131.814 16.4506 131.762 18.4593 131.762 20.3641C131.762 21.8185 131.797 23.2212 131.849 24.0697C132.024 26.4942 134.5 26.5117 135.895 26.5117C137.71 26.5117 143.465 26.4942 143.465 19.758ZM137.047 14.9611C139.715 14.9611 141.407 16.9699 141.407 19.758C141.407 24.6586 137.727 24.6586 135.895 24.6586C134.448 24.6586 133.907 24.5199 133.82 23.7236C133.75 23.0655 133.715 21.784 133.715 20.4158C133.715 18.5458 133.768 16.5545 133.82 15.8269C133.872 14.9611 134.814 14.9439 135.651 14.9439C136.297 14.9439 137.047 14.9611 137.047 14.9611Z" fill="#EA5A43"/>
<path fill-rule="evenodd" clip-rule="evenodd" d="M52.4558 13.1857C52.8948 12.9964 53.404 13.198 53.5932 13.6361L55.5574 18.3863C55.7118 18.8379 55.4709 19.3295 55.0187 19.4843C54.5662 19.6391 54.0742 19.3984 53.9201 18.9471L52.0048 14.322C51.8153 13.8838 52.0171 13.375 52.4558 13.1857Z" fill="#6B6B6B"/>
<path fill-rule="evenodd" clip-rule="evenodd" d="M117.306 25.6982C117.306 25.2206 116.918 24.8338 116.441 24.8338H111.311V13.9796C111.311 13.5023 110.923 13.1153 110.445 13.1153C109.968 13.1153 109.58 13.5023 109.58 13.9796V25.6982C109.58 26.1755 109.968 26.5625 110.445 26.5625H116.441C116.918 26.5625 117.306 26.1755 117.306 25.6982Z" fill="#6B6B6B"/>
<path fill-rule="evenodd" clip-rule="evenodd" d="M104.227 14.844C104.705 14.844 105.093 14.4569 105.093 13.9796C105.093 13.5023 104.705 13.1153 104.227 13.1153H98.2322C97.7544 13.1153 97.3672 13.5023 97.3672 13.9796V25.6982C97.3672 26.1752 97.7544 26.5625 98.2322 26.5625H104.227C104.705 26.5625 105.093 26.1752 105.093 25.6982C105.093 25.2206 104.705 24.8338 104.227 24.8338H99.0974V20.6784H103.424C103.902 20.6784 104.289 20.2914 104.289 19.8141C104.289 19.3365 103.902 18.9497 103.424 18.9497H99.0974V14.844H104.227Z" fill="#6B6B6B"/>
<path fill-rule="evenodd" clip-rule="evenodd" d="M89.0816 19.821L92.5397 14.4469C92.798 14.0452 92.6815 13.5104 92.2796 13.2522C91.8775 12.9937 91.3426 13.1102 91.084 13.5119C91.084 13.5119 89.6491 15.7415 88.0318 18.255L88.0195 18.2378L88.0145 18.2457C86.3995 15.7359 84.9685 13.5119 84.9685 13.5119C84.7096 13.1102 84.1744 12.9937 83.7725 13.2522C83.3706 13.5104 83.2541 14.0452 83.5124 14.4469L86.9862 19.8452L83.5263 25.2284C83.2679 25.6306 83.3844 26.1663 83.7866 26.4245C84.1885 26.6836 84.7237 26.5671 84.9826 26.1649C84.9826 26.1649 86.4213 23.9265 88.0418 21.4053C89.662 23.9265 91.1004 26.1649 91.1004 26.1649C91.359 26.5671 91.8945 26.6836 92.297 26.4245C92.6989 26.1663 92.8151 25.6306 92.5571 25.2284L89.0816 19.821Z" fill="#6B6B6B"/>
<path fill-rule="evenodd" clip-rule="evenodd" d="M63.339 13.1863C62.9 12.997 62.391 13.1988 62.2016 13.637L57.8967 23.5904C57.8967 23.5904 57.345 22.3145 56.6369 20.6769L56.6427 20.6746C56.4524 20.2414 55.9407 20.0419 55.4997 20.2291C55.0937 20.4015 54.8936 20.8411 55.0125 21.2477L55.0004 21.2524C56.0958 23.7849 57.0717 26.0411 57.0717 26.0411C57.2085 26.3574 57.5207 26.5625 57.8658 26.5625H57.9276C58.273 26.5625 58.5851 26.3574 58.7219 26.0411L63.79 14.3226C63.9795 13.8844 63.7777 13.3756 63.339 13.1863Z" fill="#6B6B6B"/>
<path fill-rule="evenodd" clip-rule="evenodd" d="M73.844 24.8338C71.0869 24.8338 68.8435 22.5928 68.8435 19.8389C68.8435 17.0847 71.0869 14.844 73.844 14.844C76.601 14.844 78.8444 17.0847 78.8444 19.8389C78.8444 22.5928 76.601 24.8338 73.844 24.8338ZM73.844 13.1153C70.1325 13.1153 67.1133 16.1315 67.1133 19.8389C67.1133 23.5463 70.1325 26.5625 73.844 26.5625C77.5554 26.5625 80.5746 23.5463 80.5746 19.8389C80.5746 16.1315 77.5554 13.1153 73.844 13.1153Z" fill="#6B6B6B"/>
</g>
<defs>
<clipPath id="clip0">
<rect width="147" height="36" fill="white" transform="translate(2 2)"/>
</clipPath>
</defs>
</svg>
