<svg width="179" height="151" viewBox="0 0 179 151" fill="none" xmlns="http://www.w3.org/2000/svg">
<path fill-rule="evenodd" clip-rule="evenodd" d="M80.9386 141.742C80.9606 141.715 80.9976 141.703 81.0166 141.672L87.0206 131.772L87.0586 145.827L80.9386 141.742ZM73.2236 127.779L85.8186 129.764L80.1966 139.177L73.2236 127.779ZM58.0306 126.451L70.6966 127.425L78.3436 140.01L58.0306 126.451ZM52.9066 101.399L65.0276 109.765L56.8496 122.628L52.9066 101.399ZM42.4046 105.631L50.7866 100.814L54.6196 121.53L42.4046 105.631ZM24.8506 104.304L40.4186 106.244L53.7366 123.585L24.8506 104.304ZM11.7706 83.3069L36.7276 85.1439L25.4576 99.3319L23.7466 101.486L11.7706 83.3069ZM10.6696 94.8379C10.4596 94.6969 10.3226 94.4619 10.3056 94.2079L9.58359 83.5169L22.0336 102.423L10.6696 94.8379ZM6.70859 40.9609L21.3546 50.2209L9.39159 80.6749L6.70859 40.9609ZM4.91359 14.3809L20.7216 26.1839L6.51859 38.1369L4.91359 14.3809ZM4.26859 4.84195C4.25859 4.68695 4.26859 4.45593 4.47259 4.23694C4.63559 4.06294 4.87459 3.95494 5.09659 3.95494C5.23059 3.95494 5.36359 3.99294 5.50159 4.07294L12.8226 8.09894L4.73859 11.7959L4.26859 4.84195ZM20.0176 23.2399L6.50659 13.1569L14.2816 9.60194L20.0176 23.2399ZM21.5656 48.0599L8.00059 39.4869L21.3386 28.2629L21.5656 48.0599ZM36.1346 20.9189L22.8556 24.9539L16.6496 10.2029L36.1346 20.9189ZM43.0816 43.1159L24.2646 26.5889L36.7706 22.7909L43.0816 43.1159ZM49.3606 28.1919L45.0216 42.7369L38.6776 22.3169L49.3606 28.1919ZM53.2046 62.0389L46.0986 46.1179L50.2616 32.3219L53.2046 62.0389ZM54.2976 71.3869L61.8286 86.6879L40.9386 83.6409L54.2976 71.3869ZM72.5686 85.1339L64.2266 86.6889L58.4286 74.0049L72.5686 85.1339ZM77.9516 110.235L67.6896 108.715L73.6316 90.0389L77.9516 110.235ZM86.9206 94.5469L86.9546 106.891L75.8516 87.3729C75.8516 87.3729 86.2316 94.3169 86.9206 94.5469ZM76.1056 91.8449L85.6526 108.571L79.9846 110.173L76.1056 91.8449ZM79.1856 113.665L85.7106 127.734L72.8396 125.709L79.1856 113.665ZM67.7596 110.716L77.6696 112.185L71.5476 123.813L67.7596 110.716ZM66.0516 111.924L69.9426 125.384L58.0716 124.474L66.0516 111.924ZM64.8656 88.7359L72.1706 87.6399L66.7766 104.503L64.8656 88.7359ZM63.0216 90.0239L65.1346 107.47L53.0866 99.1559L63.0216 90.0239ZM49.9766 98.9639L41.7566 103.69L39.9996 87.3359L49.9766 98.9639ZM41.1216 85.6539L61.5536 88.6349L51.5636 97.8199L41.1216 85.6539ZM38.9266 82.6429L31.5406 68.9999L52.1816 70.4769L38.9266 82.6429ZM37.9566 86.8279L39.8196 104.189L25.5726 102.416L37.9566 86.8279ZM29.5056 69.3429L36.9706 83.1919L12.6666 81.4069L29.5056 69.3429ZM28.6256 67.5159L12.0296 79.4079L22.5936 52.5149L28.6256 67.5159ZM23.5466 48.6849L23.3126 28.3329L42.8506 45.4999L23.5466 48.6849ZM44.7156 48.3639L53.0386 68.5579L31.6786 67.0309L44.7156 48.3639ZM30.0626 65.8469L23.9376 50.6169L42.8786 47.4959L30.0626 65.8469ZM87.0046 125.614L80.6876 112.094L86.9636 110.328L87.0046 125.614ZM171.86 0.602936L128.435 24.6419C127.184 25.3699 126.372 26.6699 126.268 28.1139L124.546 66.3919C124.447 67.7539 123.72 68.9919 122.578 69.7419L91.7806 90.6609C90.6716 91.3889 89.3166 91.5609 88.0916 91.1839C87.6986 91.0579 87.3166 90.8839 86.9636 90.6429L57.6896 69.9339C56.5976 69.1889 55.8996 67.9899 55.7916 66.6709L53.7226 28.7699C53.6056 27.3369 52.7926 26.0519 51.5466 25.3329L7.28059 0.989944C6.57259 0.579941 5.82359 0.393936 5.09659 0.393936C2.70659 0.393936 0.537588 2.39993 0.718588 5.08194L6.75559 94.4479C6.84759 95.8059 7.56459 97.0449 8.69559 97.7999L87.0696 150.115C87.0706 150.116 87.0716 150.116 87.0716 150.116L87.1236 150.15C87.8596 150.641 88.7066 150.888 89.5546 150.888C90.4066 150.888 91.2596 150.638 91.9986 150.141V150.071L170.52 97.2529C171.645 96.4969 172.356 95.2619 172.446 93.9089L178.435 4.68494C178.67 1.17993 174.896 -1.16406 171.86 0.602936Z" fill="#E5573F"/>
</svg>
