<svg width="24" height="24" viewBox="0 0 24 24" fill="none" xmlns="http://www.w3.org/2000/svg">
<path fill-rule="evenodd" clip-rule="evenodd" d="M12.0585 1.99992C8.54612 1.98588 5.28553 3.80668 3.46064 6.79969C1.6354 9.79328 1.51287 13.5226 3.13769 16.6292L3.31439 16.9737C3.34394 17.0293 3.34849 17.0769 3.33482 17.121C3.08241 17.7864 2.8553 18.5241 2.67407 19.2735C2.65546 19.3505 2.64606 19.4294 2.64606 19.5085C2.64606 20.4147 3.16836 21.0874 4.15755 21.0655L4.35106 21.0422C5.077 20.8819 5.79188 20.6754 6.49131 20.4239L6.5818 20.443C6.59841 20.4474 6.61589 20.4529 6.63291 20.4598L7.21998 20.7967C7.22956 20.8029 7.24073 20.8103 7.25748 20.8214C7.2572 20.8249 7.25909 20.8282 7.26804 20.8325L7.31879 20.848C10.9935 22.7802 15.4814 22.2471 18.5998 19.5079C21.7187 16.7681 22.82 12.3899 21.3676 8.50351C19.9153 4.61767 16.2117 2.03052 12.0585 1.99992ZM11.7573 4.00394L12.045 3.99889C15.3683 4.02436 18.3323 6.09485 19.4941 9.20368C20.6558 12.3119 19.775 15.8135 17.2798 18.0053C14.784 20.1977 11.1911 20.6245 8.24961 19.0778C8.10609 19.0023 7.94636 18.9629 7.7842 18.9629L7.81629 18.9601C7.86763 18.9492 7.84502 18.9081 7.80372 18.8647L7.679 18.7549L7.61497 18.7201C7.55265 18.6867 7.49667 18.658 7.44561 18.6334C6.91299 18.4135 6.38452 18.3819 5.88747 18.5188L5.4788 18.6588C5.34457 18.7031 5.21215 18.7451 5.081 18.7849L4.862 18.8479L4.89162 18.7472C4.99297 18.418 5.10442 18.092 5.22583 17.7695C5.4171 17.1585 5.35983 16.5582 5.08609 16.0459L4.91353 15.7092C3.61039 13.2176 3.70838 10.2352 5.16826 7.84086C6.5781 5.52857 9.05955 4.09028 11.7573 4.00394Z" fill="#8E8E8E"/>
<g opacity="0.5">
<path fill-rule="evenodd" clip-rule="evenodd" d="M9 12C9 12.5523 8.55228 13 8 13C7.44772 13 7 12.5523 7 12C7 11.4477 7.44772 11 8 11C8.55228 11 9 11.4477 9 12ZM13 12C13 12.5523 12.5523 13 12 13C11.4477 13 11 12.5523 11 12C11 11.4477 11.4477 11 12 11C12.5523 11 13 11.4477 13 12ZM16 13C16.5523 13 17 12.5523 17 12C17 11.4477 16.5523 11 16 11C15.4477 11 15 11.4477 15 12C15 12.5523 15.4477 13 16 13Z" fill="#8E8E8E"/>
</g>
</svg>
