<svg width="24" height="24" viewBox="0 0 24 24" fill="none" xmlns="http://www.w3.org/2000/svg">
<path fill-rule="evenodd" clip-rule="evenodd" d="M16.1164 4.77148C15.5932 3.69326 14.4968 3 13.2867 3H10.7133L10.5128 3.00637C9.31668 3.08244 8.25993 3.83465 7.80173 4.9547L7.70295 5.17369C7.41967 5.74669 6.97934 6.22957 6.43114 6.56458L5.71863 7H4C3.44772 7 3 7.44772 3 8C3 8.55228 3.44772 9 4 9H5.984C5.99529 9.00019 6.00659 9.00019 6.01789 9H17.9821C17.9934 9.00019 18.0047 9.00019 18.016 9H20C20.5523 9 21 8.55228 21 8C21 7.44772 20.5523 7 20 7H18.2814L17.5689 6.56458L17.3684 6.43213C16.848 6.06106 16.4415 5.54933 16.1983 4.9547L16.1164 4.77148ZM15.0966 7C14.7903 6.6098 14.5373 6.17682 14.3472 5.71197C14.187 5.32049 13.8261 5.05239 13.4123 5.00688L13.2867 5H10.7133C10.2481 5 9.82898 5.28134 9.65282 5.71197C9.46265 6.17682 9.20975 6.6098 8.9034 7H15.0966Z" fill="#E9E9E9"/>
<g opacity="0.5">
<path fill-rule="evenodd" clip-rule="evenodd" d="M19.2428 11.0301C19.7786 11.164 20.1043 11.707 19.9704 12.2428L17.9704 20.2428C17.8684 20.6508 17.5238 20.9473 17.1136 20.9938L17.0002 21.0002H7.00024C6.54137 21.0002 6.14139 20.6879 6.03009 20.2428L4.03009 12.2428C3.89615 11.707 4.22191 11.164 4.7577 11.0301C5.2935 10.8961 5.83643 11.2219 5.97038 11.7577L7.78024 19.0002H16.2192L18.0301 11.7577C18.164 11.2219 18.707 10.8961 19.2428 11.0301Z" fill="#E9E9E9"/>
</g>
</svg>
